<svg xmlns="http://www.w3.org/2000/svg" xmlns:xlink="http://www.w3.org/1999/xlink" version="1.1" id="Layer_1" x="0px" y="0px" width="30.235px" height="106.352px" viewBox="0 0 30.235 106.352" enable-background="new 0 0 30.235 106.352" xml:space="preserve"><path fill-rule="evenodd" clip-rule="evenodd" fill="#107DB0" d="M24.932 1.301c-0.792 0-1.419 0.21-1.898 0.306l-0.148 1.2 c0.24-0.115 0.995-0.325 1.622-0.344s0.996 0.1 0.9 0.65c-1.862 0-3.115 0.382-3.373 1.6 c-0.369 2.1 1.9 2 2.8 1.108l-0.11 0.497h1.658l0.719-3.289C27.365 1.6 26.1 1.3 24.9 1.301z M25.043 4.7 c-0.092 0.439-0.442 0.631-0.866 0.65c-0.368 0.019-0.701-0.307-0.461-0.688c0.185-0.325 0.7-0.402 1.014-0.402 c0.128 0 0.3 0 0.4 0C25.098 4.4 25.1 4.5 25 4.665z"/><polygon fill-rule="evenodd" clip-rule="evenodd" fill="#107DB0" points="28.5,0 27.1,6.3 28.8,6.3 30.2,0 28.5,0 28.5,0"/><path fill-rule="evenodd" clip-rule="evenodd" fill="#107DB0" d="M20.748 0.02h-3.084l-1.367 6.29h1.792l0.462-2.084h1.275 c1.255 0 2.29-0.764 2.567-2.064C22.706 0.7 21.6 0 20.7 0.02z M20.693 2.161c-0.111 0.478-0.591 0.86-1.053 0.86h-0.831 l0.369-1.72h0.887C20.527 1.3 20.8 1.7 20.7 2.161z"/><path fill-rule="evenodd" clip-rule="evenodd" fill="#1B557D" d="M8.778 1.301c-0.783 0-1.402 0.21-1.857 0.306L6.775 2.8 c0.219-0.115 0.965-0.325 1.583-0.344c0.62-0.019 1 0.1 0.9 0.65c-1.838 0-3.076 0.382-3.332 1.6 C5.537 6.8 7.8 6.7 8.7 5.812L8.542 6.309h1.657l0.709-3.289C11.199 1.6 9.9 1.3 8.8 1.301z M8.905 4.7 C8.814 5.1 8.4 5.3 8 5.315C7.667 5.3 7.4 5 7.6 4.627c0.182-0.325 0.691-0.402 0.983-0.402 c0.146 0 0.3 0 0.4 0C8.96 4.4 8.9 4.5 8.9 4.665z"/><polygon fill-rule="evenodd" clip-rule="evenodd" fill="#1B557D" points="11.6,1.4 13.3,1.4 13.6,4.3 15.2,1.4 16.9,1.4 12.9,8.4 11.1,8.4 12.3,6.3 11.6,1.4 11.6,1.4"/><path fill-rule="evenodd" clip-rule="evenodd" fill="#1B557D" d="M4.657 0.02H1.565l-1.37 6.29h1.814l0.445-2.084H3.75 c1.241 0 2.278-0.764 2.556-2.064C6.621 0.7 5.6 0 4.7 0.02z M4.602 2.161c-0.111 0.478-0.574 0.86-1.037 0.86H2.713 l0.389-1.72h0.889C4.436 1.3 4.7 1.7 4.6 2.161z"/><path fill-rule="evenodd" clip-rule="evenodd" fill="#B20000" d="M4.155 17.809C1.909 18.5 0.3 20.5 0.3 23 c0 2.5 1.6 4.5 3.9 5.196V17.809L4.155 17.809z"/><path fill-rule="evenodd" clip-rule="evenodd" fill="#B20000" d="M5.73 17.575c-0.134 0-0.234 0-0.369 0v0.57 c0.067 0 0.1 0 0.2 0c1.844 0 3.4 1.5 3.4 3.352s-1.508 3.352-3.352 3.386v3.52c0.033 0 0.1 0 0.1 0 c3.017 0 5.464-2.414 5.464-5.431C11.194 20 8.7 17.6 5.7 17.575L5.73 17.575z"/><g><path fill="#B20000" d="M14.428 17.67l1.014 2.933h0.017l1.022-2.933h1.044v3.979h-0.798v-1.186l0.077-1.757l-0.017-0.003 l-1.066 2.946h-0.536l-1.06-2.936l-0.017 0.003l0.077 1.747v1.186h-0.798V17.67H14.428z"/><path fill="#B20000" d="M18.082 20.144c0-0.441 0.123-0.802 0.369-1.084c0.246-0.281 0.586-0.422 1.022-0.422 c0.438 0 0.8 0.1 1 0.421c0.248 0.3 0.4 0.6 0.4 1.085v0.057c0 0.445-0.124 0.807-0.371 1.1 c-0.247 0.28-0.588 0.42-1.023 0.42c-0.437 0-0.779-0.14-1.026-0.42c-0.247-0.279-0.37-0.642-0.37-1.086V20.144z M18.877 20.2 c0 0.3 0 0.5 0.1 0.648c0.095 0.2 0.2 0.2 0.5 0.244c0.206 0 0.357-0.082 0.453-0.246s0.144-0.379 0.144-0.646 v-0.058c0-0.262-0.048-0.476-0.145-0.641s-0.249-0.249-0.457-0.249c-0.206 0-0.356 0.083-0.452 0.2 c-0.096 0.166-0.144 0.379-0.144 0.64V20.2z"/><path fill="#B20000" d="M22.094 18.692l0.036 0.423c0.099-0.151 0.22-0.269 0.364-0.353c0.144-0.083 0.305-0.125 0.483-0.125 c0.299 0 0.5 0.1 0.7 0.281c0.168 0.2 0.3 0.5 0.3 0.883v1.848h-0.801V19.8c0-0.199-0.04-0.34-0.12-0.423 c-0.08-0.083-0.201-0.125-0.364-0.125c-0.105 0-0.2 0.021-0.284 0.064c-0.083 0.043-0.154 0.104-0.21 0.182v2.15h-0.798v-2.957 H22.094z"/><path fill="#B20000" d="M25.833 21.707c-0.426 0-0.767-0.137-1.022-0.41c-0.255-0.273-0.383-0.621-0.383-1.042v-0.109 c0-0.439 0.121-0.801 0.362-1.085c0.241-0.284 0.565-0.425 0.972-0.423c0.399 0 0.7 0.1 0.9 0.4 c0.22 0.2 0.3 0.6 0.3 0.976v0.435h-1.766l-0.005 0.016c0.015 0.2 0.1 0.4 0.2 0.5 c0.116 0.1 0.3 0.2 0.5 0.188c0.176 0 0.323-0.018 0.44-0.053s0.244-0.09 0.382-0.166l0.216 0.5 c-0.121 0.098-0.278 0.18-0.473 0.245C26.289 21.7 26.1 21.7 25.8 21.707z M25.763 19.252c-0.148 0-0.265 0.057-0.35 0.2 c-0.085 0.113-0.139 0.262-0.159 0.446l0.008 0.014h0.979V19.81c0-0.169-0.04-0.305-0.119-0.406 C26.042 19.3 25.9 19.3 25.8 19.252z"/><path fill="#B20000" d="M28.512 20.409l0.033 0.164h0.017l0.565-1.88h0.858l-1.2 3.4c-0.084 0.211-0.198 0.389-0.342 0.5 s-0.36 0.217-0.648 0.217c-0.067 0-0.13-0.005-0.187-0.017c-0.058-0.011-0.127-0.026-0.209-0.046l0.093-0.582 c0.024 0 0 0 0.1 0.011c0.027 0 0.1 0 0.1 0.006c0.131 0 0.232-0.033 0.303-0.097 c0.071-0.065 0.126-0.146 0.164-0.242l0.093-0.23l-1.049-2.954h0.858L28.512 20.409z"/><path fill="#B20000" d="M17.413 26.378c0 0.601-0.19 1.098-0.57 1.491c-0.38 0.393-0.875 0.589-1.482 0.6 c-0.604 0-1.094-0.196-1.47-0.589c-0.377-0.393-0.565-0.89-0.565-1.491v-0.881c0-0.599 0.188-1.095 0.563-1.489 c0.376-0.394 0.865-0.59 1.469-0.59c0.608 0 1.1 0.2 1.5 0.59c0.381 0.4 0.6 0.9 0.6 1.489V26.378z M16.43 25.5 c0-0.382-0.095-0.696-0.286-0.94c-0.191-0.245-0.453-0.368-0.788-0.368c-0.334 0-0.593 0.122-0.777 0.4 c-0.184 0.244-0.276 0.558-0.276 0.942v0.89c0 0.4 0.1 0.7 0.3 0.951c0.186 0.2 0.4 0.4 0.8 0.4 c0.336 0 0.599-0.123 0.788-0.367c0.188-0.245 0.282-0.562 0.282-0.951V25.493z"/><path fill="#B20000" d="M20.014 25.591l-0.36-0.01c-0.146 0-0.266 0.03-0.36 0.091s-0.166 0.146-0.215 0.256v2.459H18.1v-3.641 h0.912l0.044 0.538c0.085-0.19 0.196-0.339 0.332-0.446c0.136-0.106 0.292-0.16 0.469-0.16c0.049 0 0.1 0 0.1 0 s0.083 0 0.1 0.029L20.014 25.591z"/><path fill="#B20000" d="M20.36 26.597c0-0.574 0.124-1.038 0.372-1.39s0.597-0.528 1.048-0.528c0.182 0 0.3 0 0.5 0.1 c0.146 0.1 0.3 0.2 0.4 0.336v-1.995h0.986v5.249h-0.844l-0.081-0.444c-0.114 0.168-0.25 0.296-0.405 0.4 s-0.335 0.131-0.537 0.131c-0.446 0-0.793-0.164-1.042-0.491c-0.248-0.328-0.372-0.761-0.372-1.299V26.597z M21.339 26.7 c0 0.3 0.1 0.6 0.2 0.756c0.107 0.2 0.3 0.3 0.5 0.276c0.141 0 0.265-0.029 0.37-0.086 c0.105-0.057 0.192-0.142 0.259-0.252v-1.561c-0.067-0.115-0.153-0.205-0.257-0.269c-0.104-0.064-0.226-0.096-0.365-0.096 c-0.24 0-0.416 0.107-0.527 0.321s-0.167 0.494-0.167 0.839V26.668z"/><path fill="#B20000" d="M26.013 28.458c-0.525 0-0.945-0.168-1.259-0.505s-0.471-0.764-0.471-1.282v-0.135 c0-0.541 0.148-0.986 0.446-1.336c0.297-0.35 0.696-0.523 1.196-0.521c0.492 0 0.9 0.1 1.1 0.4 c0.271 0.3 0.4 0.7 0.4 1.201v0.535h-2.173l-0.007 0.021c0.018 0.2 0.1 0.4 0.2 0.6 c0.142 0.2 0.3 0.2 0.6 0.231c0.218 0 0.398-0.021 0.542-0.064c0.144-0.043 0.3-0.111 0.471-0.205l0.266 0.6 c-0.148 0.121-0.342 0.222-0.582 0.301C26.574 28.4 26.3 28.5 26 28.458z M25.925 25.4 c-0.182 0-0.325 0.069-0.431 0.208s-0.17 0.322-0.195 0.548l0.01 0.017h1.205v-0.088c0-0.208-0.049-0.375-0.146-0.5 C26.271 25.5 26.1 25.4 25.9 25.437z"/><path fill="#B20000" d="M29.963 25.591l-0.36-0.01c-0.146 0-0.266 0.03-0.36 0.091s-0.166 0.146-0.215 0.256v2.459h-0.979v-3.641 h0.912l0.044 0.538c0.085-0.19 0.196-0.339 0.332-0.446c0.136-0.106 0.292-0.16 0.469-0.16c0.049 0 0.1 0 0.1 0 s0.083 0 0.1 0.029L29.963 25.591z"/></g><g><path fill="#444444" d="M4.696 32.887l0.008 0.023c0.01 0.596-0.172 1.068-0.546 1.418c-0.374 0.35-0.893 0.525-1.557 0.5 c-0.667 0-1.208-0.214-1.624-0.643c-0.416-0.428-0.624-0.979-0.624-1.654v-1.099c0-0.672 0.203-1.223 0.608-1.654 c0.406-0.431 0.933-0.646 1.582-0.646c0.685 0 1.2 0.2 1.6 0.527c0.385 0.4 0.6 0.8 0.6 1.436l-0.007 0.023h-1.08 c0-0.365-0.087-0.645-0.263-0.839c-0.175-0.194-0.447-0.291-0.817-0.291c-0.332 0-0.596 0.135-0.791 0.4 c-0.195 0.27-0.292 0.614-0.292 1.032v1.105c0 0.4 0.1 0.8 0.3 1.039c0.206 0.3 0.5 0.4 0.8 0.4 c0.347 0 0.604-0.093 0.77-0.279c0.166-0.187 0.249-0.463 0.249-0.831H4.696z"/><path fill="#444444" d="M9.97 34.773H8.864v-2.301H6.605v2.301h-1.11v-5.537h1.11v2.38h2.259v-2.38H9.97V34.773z"/><path fill="#444444" d="M14.412 32.339h-2.293v1.578H14.8v0.855h-3.792v-5.537h3.784v0.855h-2.673v1.392h2.293V32.339z"/><path fill="#444444" d="M19.934 32.507c0 0.335-0.055 0.645-0.164 0.931s-0.265 0.534-0.468 0.744l0.917 0.894l-0.727 0.6 l-0.996-0.966c-0.137 0.048-0.279 0.085-0.426 0.112c-0.147 0.026-0.299 0.04-0.457 0.04c-0.682 0-1.236-0.222-1.662-0.666 c-0.426-0.444-0.639-1.005-0.639-1.685v-0.997c0-0.677 0.212-1.238 0.637-1.683s0.978-0.667 1.66-0.667 c0.687 0 1.2 0.2 1.7 0.668c0.431 0.4 0.6 1 0.6 1.685V32.507z M18.823 31.502c0-0.432-0.108-0.786-0.323-1.063 c-0.216-0.277-0.512-0.416-0.89-0.416c-0.377 0-0.67 0.138-0.878 0.414c-0.208 0.275-0.312 0.63-0.312 1.065v1.005 c0 0.4 0.1 0.8 0.3 1.075s0.503 0.4 0.9 0.415c0.38 0 0.677-0.138 0.89-0.415c0.213-0.277 0.32-0.635 0.32-1.075 V31.502z"/><path fill="#444444" d="M25.311 29.236v3.673c0 0.621-0.206 1.1-0.616 1.438c-0.411 0.337-0.948 0.506-1.612 0.5 c-0.662 0-1.196-0.169-1.603-0.506c-0.407-0.337-0.61-0.816-0.61-1.438v-3.673h1.114v3.67c0 0.4 0.1 0.6 0.3 0.8 s0.464 0.3 0.8 0.271c0.347 0 0.62-0.09 0.817-0.27c0.198-0.18 0.297-0.454 0.297-0.821v-3.67H25.311z"/><path fill="#444444" d="M29.684 32.339h-2.293v1.578h2.681v0.855H26.28v-5.537h3.784v0.855h-2.673v1.392h2.293V32.339z"/></g><g><path fill="#FF9100" d="M0.376 45.121l1.681-8.41h2.351c0.943 0 1.7 0.3 2.3 1.048s0.769 1.6 0.6 2.579l-0.26 1.3 c-0.228 1.132-0.673 2-1.337 2.603C5 44.8 4.2 45.1 3.2 45.121H0.376z M3.212 37.837l-1.23 6.157H3.34 c0.585 0 1.075-0.216 1.47-0.649c0.395-0.433 0.666-1.011 0.812-1.734l0.26-1.287c0.146-0.742 0.058-1.342-0.266-1.8 c-0.324-0.458-0.814-0.687-1.473-0.687H3.212z"/><path fill="#FF9100" d="M8.966 45.121H7.585l1.248-6.25h1.38L8.966 45.121z M10.52 37.34h-1.38l0.248-1.23h1.381L10.52 37.34z"/><path fill="#FF9100" d="M14.43 40.153l-0.636-0.023c-0.227 0-0.433 0.058-0.618 0.173c-0.185 0.116-0.345 0.277-0.479 0.5 l-0.867 4.332h-1.38l1.248-6.25h1.265l-0.081 0.826c0.204-0.3 0.434-0.532 0.69-0.696c0.256-0.164 0.53-0.245 0.823-0.245 c0.077 0 0.2 0 0.3 0.02s0.161 0 0.2 0.049L14.43 40.153z"/><path fill="#FF9100" d="M16.937 45.242c-0.801 0-1.408-0.292-1.822-0.878c-0.414-0.585-0.548-1.326-0.401-2.224l0.035-0.231 c0.15-0.943 0.513-1.706 1.089-2.288s1.233-0.87 1.973-0.866c0.766 0 1.3 0.3 1.7 0.771s0.456 1.2 0.3 2.048L19.669 42.4 h-3.61c-0.054 0.5 0 0.9 0.2 1.252c0.189 0.3 0.5 0.5 0.9 0.463c0.328 0 0.628-0.047 0.901-0.141 s0.539-0.226 0.797-0.395l0.289 0.921c-0.25 0.208-0.568 0.384-0.953 0.527C17.852 45.2 17.4 45.2 16.9 45.242z M17.63 39.882c-0.293 0-0.562 0.138-0.806 0.413c-0.245 0.275-0.425 0.625-0.54 1.048l0.011 0.029h2.172l0.023-0.144 c0.062-0.412 0.025-0.739-0.109-0.982S17.996 39.9 17.6 39.882z"/><path fill="#FF9100" d="M22.921 44.116c0.296 0 0.566-0.101 0.809-0.302s0.389-0.453 0.439-0.755h1.248l0.012 0 c-0.081 0.612-0.383 1.124-0.907 1.534c-0.524 0.41-1.117 0.615-1.779 0.615c-0.832 0-1.438-0.299-1.819-0.898 s-0.499-1.347-0.353-2.244l0.029-0.202c0.15-0.939 0.5-1.698 1.048-2.276c0.549-0.578 1.258-0.866 2.129-0.866 c0.682 0 1.2 0.2 1.6 0.661s0.507 1 0.4 1.667l-0.011 0.029h-1.259c0.058-0.358 0.008-0.653-0.15-0.884 c-0.158-0.231-0.402-0.347-0.733-0.347c-0.455 0-0.814 0.194-1.08 0.583c-0.266 0.388-0.445 0.865-0.537 1.43l-0.029 0.2 c-0.1 0.607-0.083 1.1 0 1.465S22.44 44.1 22.9 44.116z"/><path fill="#FF9100" d="M29.373 37.352l-0.306 1.519h1.034l-0.208 1.04h-1.034l-0.688 3.454c-0.058 0.277-0.047 0.5 0 0.6 c0.079 0.1 0.2 0.1 0.4 0.15c0.092 0 0.192-0.007 0.3-0.021c0.107-0.013 0.204-0.032 0.289-0.055l-0.063 1 c-0.146 0.065-0.317 0.116-0.511 0.153s-0.396 0.055-0.604 0.055c-0.458 0-0.805-0.154-1.04-0.462 c-0.235-0.308-0.287-0.78-0.156-1.415l0.688-3.454h-0.872l0.208-1.04h0.873l0.306-1.519H29.373z"/><path fill="#FF9100" d="M0.291 53.308l1.297-6.488h1.813c0.728 0 1.3 0.3 1.8 0.809c0.447 0.5 0.6 1.2 0.4 2 l-0.2 0.985c-0.176 0.873-0.52 1.542-1.032 2.007c-0.513 0.465-1.158 0.697-1.936 0.697H0.291z M2.479 47.689l-0.949 4.75h1.047 c0.451 0 0.83-0.167 1.134-0.5c0.305-0.334 0.513-0.78 0.626-1.338l0.201-0.993c0.113-0.573 0.044-1.036-0.205-1.389 c-0.25-0.353-0.628-0.53-1.136-0.53H2.479z"/><path fill="#FF9100" d="M7.79 53.402c-0.618 0-1.086-0.226-1.406-0.677c-0.319-0.452-0.423-1.023-0.31-1.716l0.026-0.178 c0.116-0.728 0.396-1.316 0.84-1.765c0.444-0.448 0.951-0.671 1.521-0.668c0.591 0 1 0.2 1.3 0.6 c0.269 0.4 0.4 0.9 0.2 1.58l-0.103 0.637H7.113c-0.042 0.4 0 0.7 0.2 0.966s0.388 0.4 0.7 0.4 c0.252 0 0.484-0.036 0.695-0.109c0.21-0.072 0.416-0.174 0.615-0.304l0.223 0.71c-0.193 0.161-0.438 0.296-0.735 0.4 C8.496 53.3 8.2 53.4 7.8 53.402z M8.325 49.267c-0.226 0-0.433 0.106-0.622 0.318s-0.328 0.482-0.417 0.809l0.009 0 h1.675l0.018-0.111c0.047-0.318 0.02-0.57-0.084-0.757S8.607 49.3 8.3 49.267z"/><path fill="#FF9100" d="M14.737 51.147c-0.152 0.749-0.403 1.312-0.753 1.689c-0.35 0.377-0.803 0.566-1.359 0.6 c-0.241 0-0.458-0.046-0.653-0.139c-0.194-0.092-0.354-0.225-0.479-0.398l-0.459 2.297H9.969l1.333-6.675h0.954l-0.036 0.5 c0.172-0.178 0.361-0.315 0.566-0.412c0.205-0.097 0.425-0.145 0.659-0.145c0.52 0 0.9 0.3 1.2 0.8 s0.302 1.1 0.2 1.889L14.737 51.147z M13.694 51.051c0.104-0.522 0.099-0.947-0.016-1.275 c-0.114-0.328-0.341-0.492-0.679-0.492c-0.178 0-0.344 0.052-0.497 0.156c-0.153 0.104-0.291 0.248-0.412 0.432l-0.441 2.2 c0.059 0.1 0.2 0.3 0.3 0.333s0.308 0.1 0.5 0.116c0.312 0 0.571-0.124 0.778-0.372 c0.207-0.248 0.353-0.586 0.439-1.017L13.694 51.051z"/><path fill="#FF9100" d="M15.49 50.853c0.119-0.746 0.395-1.341 0.829-1.787c0.434-0.445 0.974-0.668 1.622-0.668 c0.621 0 1.1 0.2 1.4 0.695s0.402 1.1 0.3 1.76l-0.013 0.093c-0.122 0.752-0.399 1.349-0.831 1.8 c-0.432 0.442-0.974 0.664-1.624 0.664c-0.621 0-1.084-0.231-1.391-0.693c-0.306-0.462-0.401-1.05-0.285-1.763L15.49 50.853z M16.542 50.944c-0.08 0.489-0.062 0.9 0.1 1.161c0.116 0.3 0.3 0.4 0.7 0.427c0.324 0 0.595-0.149 0.813-0.447 c0.218-0.298 0.365-0.678 0.439-1.141l0.013-0.094c0.074-0.48 0.054-0.865-0.063-1.152c-0.116-0.288-0.346-0.432-0.69-0.432 c-0.324 0-0.595 0.15-0.813 0.452c-0.218 0.301-0.363 0.679-0.434 1.132L16.542 50.944z"/><path fill="#FF9100" d="M22.851 51.998c0.027-0.169-0.014-0.308-0.123-0.417s-0.333-0.204-0.675-0.288 c-0.517-0.122-0.896-0.295-1.139-0.521c-0.242-0.226-0.332-0.53-0.27-0.913c0.065-0.419 0.28-0.767 0.644-1.045 c0.364-0.278 0.811-0.417 1.339-0.417s0.938 0.1 1.2 0.439c0.29 0.3 0.4 0.7 0.3 1.072l-0.009 0.027h-1.025 c0.033-0.205-0.006-0.377-0.116-0.517s-0.282-0.209-0.517-0.209c-0.22 0-0.402 0.06-0.548 0.2 c-0.146 0.119-0.232 0.262-0.259 0.428c-0.026 0.2 0 0.3 0.1 0.406s0.321 0.2 0.7 0.3 c0.55 0.1 0.9 0.3 1.2 0.528c0.236 0.2 0.3 0.5 0.3 0.929c-0.071 0.449-0.294 0.805-0.668 1.1 s-0.841 0.395-1.399 0.395c-0.561 0-0.992-0.163-1.292-0.488c-0.3-0.325-0.409-0.691-0.325-1.098l0.009-0.027h0.994 c-0.036 0.3 0 0.5 0.2 0.61c0.148 0.1 0.3 0.2 0.6 0.192c0.237 0 0.434-0.054 0.59-0.163 C22.729 52.3 22.8 52.2 22.9 51.998z"/><path fill="#FF9100" d="M25.676 53.308h-1.065l0.963-4.821h1.065L25.676 53.308z M26.875 47.306H25.81l0.192-0.949h1.065 L26.875 47.306z"/><path fill="#FF9100" d="M29.357 47.315l-0.236 1.172h0.798l-0.161 0.802H28.96l-0.53 2.665c-0.044 0.214-0.037 0.4 0 0.4 s0.157 0.1 0.3 0.116c0.071 0 0.148-0.005 0.231-0.016c0.083-0.01 0.158-0.024 0.223-0.042l-0.049 0.8 c-0.113 0.051-0.244 0.09-0.394 0.118c-0.15 0.028-0.306 0.042-0.466 0.042c-0.354 0-0.621-0.119-0.802-0.356 c-0.181-0.238-0.221-0.602-0.12-1.092l0.53-2.665h-0.673l0.16-0.802h0.673l0.236-1.172H29.357z"/></g><g><g><defs><path id="SVGID_1_" d="M15.635 59.236v-0.704c0 0-0.037-0.551-0.612-0.551H14.13v1.254h-0.917v-3.615h2.227 c0 0 1.162-0.141 1.2 1.058c0 0.624-0.514 0.844-0.514 0.844s0.446 0.2 0.4 0.819v0.894H15.635 M14.13 57.132h0.949 c0.275 0 0.501-0.153 0.501-0.342c0-0.19-0.226-0.343-0.501-0.343H14.13V57.132L14.13 57.1"/></defs><radialGradient id="SVGID_2_" cx="4.4" cy="48.7" r="35.6" gradientUnits="userSpaceOnUse"><stop offset="0" style="stop-color:#00B1E7"/><stop offset="0.427" style="stop-color:#0098CD"/><stop offset="0.5244" style="stop-color:#008DBE"/><stop offset="0.8403" style="stop-color:#006C91"/><stop offset="1" style="stop-color:#005F80"/></radialGradient><use xlink:href="#SVGID_1_" overflow="visible" fill="url(#SVGID_2_)"/><clipPath id="SVGID_3_"><use xlink:href="#SVGID_1_" overflow="visible"/></clipPath></g><g><defs><path id="SVGID_4_" d="M26.461 59.236l-1.456-2.416v2.416h-0.789h-0.147h-0.861l-0.325-0.759h-1.676l-0.318 0.759h-0.844h-0.152 h-0.441c0 0-1.235-0.178-1.235-1.708c0-2.005 1.401-1.926 1.449-1.938l1.132 0.031v0.813l-0.929 0.012c0 0-0.606 0-0.68 0.8 c-0.009 0.091-0.013 0.174-0.012 0.252c0.003 1.2 1.1 0.8 1.1 0.831l1.138-2.697h1.284l1.376 3.278v-3.278h1.297 L26.804 58v-2.379h0.924v3.615H26.461 M21.599 57.554h0.893l-0.44-1.077L21.599 57.554L21.599 57.6"/></defs><radialGradient id="SVGID_5_" cx="4.4" cy="48.7" r="35.6" gradientUnits="userSpaceOnUse"><stop offset="0" style="stop-color:#00B1E7"/><stop offset="0.427" style="stop-color:#0098CD"/><stop offset="0.5244" style="stop-color:#008DBE"/><stop offset="0.8403" style="stop-color:#006C91"/><stop offset="1" style="stop-color:#005F80"/></radialGradient><use xlink:href="#SVGID_4_" overflow="visible" fill="url(#SVGID_5_)"/><clipPath id="SVGID_6_"><use xlink:href="#SVGID_4_" overflow="visible"/></clipPath></g><g><defs><path id="SVGID_7_" d="M8.435 59.236V56.74l-1.149 2.496H6.533l-1.156-2.483v2.483H4.576H4.454H3.566l-0.317-0.759H1.573 l-0.324 0.759H0.245l1.523-3.615H3.06l1.394 3.321v-3.321h1.45l1.01 2.245l1.003-2.245h1.449v3.615H8.435 M1.964 57.554h0.894 l-0.447-1.077L1.964 57.554L1.964 57.6"/></defs><radialGradient id="SVGID_8_" cx="4.4" cy="48.7" r="35.6" gradientUnits="userSpaceOnUse"><stop offset="0" style="stop-color:#00B1E7"/><stop offset="0.427" style="stop-color:#0098CD"/><stop offset="0.5244" style="stop-color:#008DBE"/><stop offset="0.8403" style="stop-color:#006C91"/><stop offset="1" style="stop-color:#005F80"/></radialGradient><use xlink:href="#SVGID_7_" overflow="visible" fill="url(#SVGID_8_)"/><clipPath id="SVGID_9_"><use xlink:href="#SVGID_7_" overflow="visible"/></clipPath></g><g><defs><polyline id="SVGID_10_" points="9.9,59.2 9.9,55.6 12.7,55.6 12.7,56.5 10.8,56.5 10.8,57 12.7,57 12.7,57.8 10.8,57.8 10.8,58.5 12.7,58.5 12.7,59.2 9.9,59.2"/></defs><radialGradient id="SVGID_11_" cx="4.4" cy="48.7" r="35.6" gradientUnits="userSpaceOnUse"><stop offset="0" style="stop-color:#00B1E7"/><stop offset="0.427" style="stop-color:#0098CD"/><stop offset="0.5244" style="stop-color:#008DBE"/><stop offset="0.8403" style="stop-color:#006C91"/><stop offset="1" style="stop-color:#005F80"/></radialGradient><use xlink:href="#SVGID_10_" overflow="visible" fill="url(#SVGID_11_)"/><clipPath id="SVGID_12_"><use xlink:href="#SVGID_10_" overflow="visible"/></clipPath></g><g><defs><polyline id="SVGID_13_" points="17,59.2 17,55.6 17.9,55.6 17.9,59.2 17,59.2"/></defs><radialGradient id="SVGID_14_" cx="4.4" cy="48.7" r="35.6" gradientUnits="userSpaceOnUse"><stop offset="0" style="stop-color:#00B1E7"/><stop offset="0.427" style="stop-color:#0098CD"/><stop offset="0.5244" style="stop-color:#008DBE"/><stop offset="0.8403" style="stop-color:#006C91"/><stop offset="1" style="stop-color:#005F80"/></radialGradient><use xlink:href="#SVGID_13_" overflow="visible" fill="url(#SVGID_14_)"/><clipPath id="SVGID_15_"><use xlink:href="#SVGID_13_" overflow="visible"/></clipPath></g></g><g><g><defs><path id="SVGID_16_" d="M19.177 65.364v-0.704c0 0-0.037-0.55-0.612-0.55h-0.893v1.254h-0.918V61.75h2.227 c0 0 1.162-0.141 1.2 1.058c0 0.624-0.513 0.844-0.513 0.844s0.441 0.2 0.4 0.819v0.893H19.177 M17.672 63.26h0.949 c0.274 0 0.501-0.152 0.501-0.342c0-0.19-0.227-0.343-0.501-0.343h-0.949V63.26L17.672 63.3"/></defs><radialGradient id="SVGID_17_" cx="4.4" cy="48.7" r="35.6" gradientUnits="userSpaceOnUse"><stop offset="0" style="stop-color:#00B1E7"/><stop offset="0.427" style="stop-color:#0098CD"/><stop offset="0.5244" style="stop-color:#008DBE"/><stop offset="0.8403" style="stop-color:#006C91"/><stop offset="1" style="stop-color:#005F80"/></radialGradient><use xlink:href="#SVGID_16_" overflow="visible" fill="url(#SVGID_17_)"/><clipPath id="SVGID_18_"><use xlink:href="#SVGID_16_" overflow="visible"/></clipPath></g><g><defs><path id="SVGID_19_" d="M13.06 65.358h-0.802l-0.972-1.07l-0.979 1.07H9.751H6.894v-3.62h2.857h0.483l1.053 1.149l1.058-1.144 h0.703v-0.005h2.226c0 0 1.162-0.129 1.2 1.063c0 1.064-0.386 1.396-1.572 1.396h-0.898v1.162H13.06 M11.91 63.579l1.138 1.3 v-2.514L11.91 63.579L11.91 63.6 M7.818 64.576h1.933l0.905-0.997l-0.905-0.992H7.818v0.556h1.884v0.821H7.818V64.576 L7.818 64.6 M13.965 63.253h0.948c0.275 0 0.501-0.152 0.501-0.342s-0.227-0.343-0.501-0.343h-0.948V63.253L13.965 63.3"/></defs><radialGradient id="SVGID_20_" cx="4.4" cy="48.7" r="35.6" gradientUnits="userSpaceOnUse"><stop offset="0" style="stop-color:#00B1E7"/><stop offset="0.427" style="stop-color:#0098CD"/><stop offset="0.5244" style="stop-color:#008DBE"/><stop offset="0.8403" style="stop-color:#006C91"/><stop offset="1" style="stop-color:#005F80"/></radialGradient><use xlink:href="#SVGID_19_" overflow="visible" fill="url(#SVGID_20_)"/><clipPath id="SVGID_21_"><use xlink:href="#SVGID_19_" overflow="visible"/></clipPath></g><g><defs><path id="SVGID_22_" d="M25.434 65.353H23.8V64.52h1.432c0 0 0.5 0.1 0.514-0.287c0-0.325-0.776-0.3-0.776-0.3 s-1.267 0.11-1.267-1.077c0-1.181 1.144-1.114 1.144-1.114h1.762v0.844H25.19c0 0-0.49-0.098-0.49 0.3 c0 0.3 0.7 0.3 0.7 0.256s1.401-0.104 1.4 0.985c0 1.167-0.903 1.271-1.223 1.3 C25.476 65.4 25.4 65.4 25.4 65.4"/></defs><radialGradient id="SVGID_23_" cx="4.4" cy="48.7" r="35.6" gradientUnits="userSpaceOnUse"><stop offset="0" style="stop-color:#00B1E7"/><stop offset="0.427" style="stop-color:#0098CD"/><stop offset="0.5244" style="stop-color:#008DBE"/><stop offset="0.8403" style="stop-color:#006C91"/><stop offset="1" style="stop-color:#005F80"/></radialGradient><use xlink:href="#SVGID_22_" overflow="visible" fill="url(#SVGID_23_)"/><clipPath id="SVGID_24_"><use xlink:href="#SVGID_22_" overflow="visible"/></clipPath></g><g><defs><polyline id="SVGID_25_" points="20.5,65.4 20.5,61.8 23.4,61.8 23.4,62.6 21.4,62.6 21.4,63.1 23.3,63.1 23.3,64 21.4,64 21.4,64.6 23.4,64.6 23.4,65.4 20.5,65.4"/></defs><radialGradient id="SVGID_26_" cx="4.4" cy="48.7" r="35.6" gradientUnits="userSpaceOnUse"><stop offset="0" style="stop-color:#00B1E7"/><stop offset="0.427" style="stop-color:#0098CD"/><stop offset="0.5244" style="stop-color:#008DBE"/><stop offset="0.8403" style="stop-color:#006C91"/><stop offset="1" style="stop-color:#005F80"/></radialGradient><use xlink:href="#SVGID_25_" overflow="visible" fill="url(#SVGID_26_)"/><clipPath id="SVGID_27_"><use xlink:href="#SVGID_25_" overflow="visible"/></clipPath></g><g><defs><path id="SVGID_28_" d="M28.669 65.353h-1.633V64.52h1.426c0 0 0.5 0.1 0.52-0.287c0-0.325-0.776-0.3-0.776-0.3 s-1.267 0.11-1.267-1.077c0-1.181 1.144-1.114 1.144-1.114h1.756v0.844h-1.414c0 0-0.489-0.098-0.489 0.3 c0 0.3 0.7 0.3 0.7 0.256s1.4-0.104 1.4 0.985c0 1.167-0.903 1.271-1.223 1.3 C28.711 65.4 28.7 65.4 28.7 65.4"/></defs><radialGradient id="SVGID_29_" cx="4.4" cy="48.7" r="35.6" gradientUnits="userSpaceOnUse"><stop offset="0" style="stop-color:#00B1E7"/><stop offset="0.427" style="stop-color:#0098CD"/><stop offset="0.5244" style="stop-color:#008DBE"/><stop offset="0.8403" style="stop-color:#006C91"/><stop offset="1" style="stop-color:#005F80"/></radialGradient><use xlink:href="#SVGID_28_" overflow="visible" fill="url(#SVGID_29_)"/><clipPath id="SVGID_30_"><use xlink:href="#SVGID_28_" overflow="visible"/></clipPath></g></g><g><path fill-rule="evenodd" clip-rule="evenodd" fill="#FAB31E" d="M15.153 81.391c1.561 1.4 3.7 2.3 5.9 2.3 c4.893 0 8.848-3.956 8.848-8.849c0-4.875-3.955-8.848-8.848-8.848c-2.273 0-4.372 0.868-5.933 2.3 c-1.788 1.631-2.915 3.956-2.915 6.558C12.238 77.4 13.4 79.8 15.2 81.391L15.153 81.391z"/><path fill-rule="evenodd" clip-rule="evenodd" fill="#FAB31E" d="M28.754 79.76c0-0.156 0.122-0.277 0.295-0.277 c0.156 0 0.3 0.1 0.3 0.277c0 0.156-0.122 0.295-0.278 0.295C28.875 80.1 28.8 79.9 28.8 79.76L28.754 79.76z M29.049 79.986c0.104 0 0.208-0.104 0.208-0.226c0-0.121-0.104-0.208-0.208-0.208c-0.122 0-0.226 0.087-0.226 0.2 C28.824 79.9 28.9 80 29 79.986L29.049 79.986z M28.997 79.899h-0.052v-0.26h0.104c0.018 0 0.1 0 0.1 0 c0.017 0 0 0 0 0.052c0 0.035-0.018 0.07-0.052 0.07l0.052 0.121h-0.07l-0.034-0.104h-0.052V79.899L28.997 79.899z M28.997 79.743h0.035c0.018 0 0 0 0 0c0.017 0 0.017-0.018 0.017-0.035c0 0 0-0.017-0.017-0.017c0 0-0.018 0-0.035 0 h-0.035V79.743L28.997 79.743z"/><path fill-rule="evenodd" clip-rule="evenodd" fill="#E40520" d="M18.015 73.896c-0.035-0.313-0.086-0.625-0.156-0.937h-5.414 c0.07-0.313 0.156-0.625 0.261-0.937h4.893c-0.104-0.313-0.226-0.625-0.364-0.937h-4.164c0.156-0.313 0.33-0.625 0.52-0.937h3.123 c-0.191-0.33-0.416-0.642-0.676-0.937h-1.77c0.26-0.33 0.573-0.642 0.885-0.937c-1.562-1.422-3.644-2.29-5.934-2.29 c-4.893 0-8.848 3.973-8.848 8.848c0 4.9 4 8.8 8.8 8.849c2.29 0 4.372-0.867 5.934-2.29l0 0 c0.312-0.295 0.625-0.607 0.902-0.937h-1.787c-0.243-0.294-0.469-0.607-0.677-0.937h3.123c0.191-0.295 0.364-0.607 0.521-0.937 h-4.164c-0.139-0.295-0.261-0.608-0.364-0.937h4.893c0.104-0.313 0.19-0.625 0.26-0.938c0.069-0.312 0.121-0.625 0.156-0.937 c0.035-0.313 0.052-0.625 0.052-0.938C18.067 74.5 18.1 74.2 18 73.896L18.015 73.896z"/><path fill-rule="evenodd" clip-rule="evenodd" fill="#FFFFFF" d="M28.754 76.88c0-0.157 0.122-0.277 0.295-0.277 c0.156 0 0.3 0.1 0.3 0.277c0 0.156-0.122 0.295-0.278 0.295C28.875 77.2 28.8 77 28.8 76.88L28.754 76.88z M29.049 77.105c0.104 0 0.208-0.104 0.208-0.225c0-0.122-0.104-0.208-0.208-0.208c-0.122 0-0.226 0.086-0.226 0.2 C28.824 77 28.9 77.1 29 77.105L29.049 77.105z M28.997 77.019h-0.052v-0.26h0.104c0.018 0 0.1 0 0.1 0 c0.017 0 0 0 0 0.052c0 0.035-0.018 0.069-0.052 0.069l0.052 0.122h-0.07l-0.034-0.104h-0.052V77.019 L28.997 77.019z M28.997 76.863h0.035c0.018 0 0 0 0 0c0.017 0 0.017-0.018 0.017-0.035c0 0 0-0.017-0.017-0.017 c0 0-0.018 0-0.035 0h-0.035V76.863L28.997 76.863z"/><path fill-rule="evenodd" clip-rule="evenodd" fill="#06326E" d="M12.151 77.383c-0.295 0.087-0.503 0.122-0.729 0.1 c-0.451 0-0.729-0.278-0.729-0.798c0-0.104 0.017-0.208 0.035-0.33l0.052-0.347l0.052-0.295l0.417-2.498h0.919l-0.104 0.555h0.572 l-0.139 0.919h-0.572l-0.26 1.492c0 0.052-0.018 0.104-0.018 0.139c0 0.2 0.1 0.3 0.3 0.3 c0.122 0 0.191-0.017 0.295-0.035L12.151 77.383L12.151 77.383z"/><path fill-rule="evenodd" clip-rule="evenodd" fill="#06326E" d="M15.118 77.349c-0.329 0.104-0.659 0.156-0.989 0.2 c-1.023 0-1.631-0.555-1.631-1.631c0-1.25 0.711-2.186 1.683-2.186c0.781 0 1.3 0.5 1.3 1.3 c0 0.26-0.035 0.521-0.121 0.902h-1.909c0 0.1 0 0.1 0 0.104c0 0.4 0.3 0.6 0.8 0.643c0.347 0 0.659-0.069 1.006-0.226 L15.118 77.349L15.118 77.349z M14.545 75.18c0-0.07 0-0.139 0-0.174c0-0.295-0.173-0.468-0.451-0.468 c-0.313 0-0.521 0.226-0.607 0.642H14.545L14.545 75.18z"/><polygon fill-rule="evenodd" clip-rule="evenodd" fill="#06326E" points="4.8,77.4 3.9,77.4 4.4,74 3.2,77.4 2.5,77.4 2.5,74 1.9,77.4 0.9,77.4 1.7,72.9 3.1,72.9 3.1,75.7 4,72.9 5.6,72.9 4.8,77.4"/><path fill-rule="evenodd" clip-rule="evenodd" fill="#06326E" d="M7.12 75.804c-0.104 0-0.121-0.017-0.191-0.017 c-0.538 0-0.815 0.208-0.815 0.555c0 0.2 0.1 0.4 0.3 0.381C6.929 76.7 7.1 76.3 7.1 75.804L7.12 75.804z M7.883 77.436H7.05l0.018-0.382c-0.208 0.295-0.486 0.451-1.006 0.451c-0.468 0-0.85-0.417-0.85-1.006 c0-0.173 0.035-0.329 0.069-0.469c0.156-0.572 0.729-0.919 1.596-0.937c0.104 0 0.3 0 0.4 0 c0.035-0.121 0.035-0.173 0.035-0.243c0-0.243-0.191-0.313-0.642-0.313c-0.278 0-0.573 0.052-0.799 0.104l-0.121 0.052h-0.07 l0.139-0.815c0.451-0.139 0.763-0.191 1.11-0.191c0.833 0 1.3 0.4 1.3 1.076c0 0.2 0 0.313-0.052 0.711L7.97 76.8 l-0.034 0.226L7.9 77.209v0.122L7.883 77.436L7.883 77.436z"/><path fill-rule="evenodd" clip-rule="evenodd" fill="#06326E" d="M19.732 73.827c0.26 0 0.5 0.1 0.9 0.243l0.156-0.989 c-0.087-0.035-0.104-0.035-0.226-0.087l-0.399-0.086c-0.122-0.035-0.26-0.052-0.434-0.052c-0.468 0-0.746 0-1.041 0.2 c-0.156 0.087-0.347 0.226-0.572 0.468l-0.104-0.034l-0.989 0.694l0.052-0.382h-1.024l-0.572 3.644h0.954l0.347-1.96 c0 0 0.139-0.277 0.208-0.365c0.174-0.226 0.33-0.226 0.521-0.226c0.035 0 0.1 0 0.1 0c-0.017 0.208-0.035 0.452-0.035 0.7 c0 1.2 0.7 1.9 1.7 1.943c0.26 0 0.485-0.035 0.833-0.139l0.173-1.024c-0.313 0.157-0.572 0.226-0.815 0.2 c-0.555 0-0.885-0.399-0.885-1.093C18.519 74.5 19 73.8 19.7 73.827L19.732 73.827z"/><path fill-rule="evenodd" clip-rule="evenodd" fill="#06326E" d="M27.834 72.942l-0.208 1.3 c-0.226-0.347-0.503-0.503-0.868-0.503c-0.502 0-0.971 0.278-1.266 0.815l0 0l-0.607-0.364l0.052-0.382h-1.023l-0.59 3.644h0.971 l0.312-1.96c0 0 0.244-0.277 0.313-0.365c0.139-0.173 0.294-0.226 0.417-0.226c-0.104 0.313-0.174 0.677-0.174 1.1 c0 0.9 0.5 1.5 1.2 1.526c0.347 0 0.625-0.121 0.885-0.416l-0.052 0.364h0.919l0.729-4.494H27.834L27.834 72.942z M26.672 76.567c-0.33 0-0.486-0.225-0.486-0.711c0-0.711 0.295-1.232 0.746-1.232c0.33 0 0.5 0.3 0.5 0.7 C27.436 76.1 27.1 76.6 26.7 76.567L26.672 76.567z"/><path fill-rule="evenodd" clip-rule="evenodd" fill="#06326E" d="M22.248 75.804c-0.104 0-0.121-0.017-0.19-0.017 c-0.538 0-0.815 0.208-0.815 0.555c0 0.2 0.1 0.4 0.3 0.381C22.058 76.7 22.2 76.3 22.2 75.804L22.248 75.804z M23.012 77.436h-0.833l0.018-0.382c-0.208 0.295-0.485 0.451-1.006 0.451c-0.468 0-0.884-0.399-0.884-1.006 c0.017-0.867 0.659-1.405 1.7-1.405c0.104 0 0.3 0 0.4 0.017c0.035-0.121 0.035-0.173 0.035-0.243 c0-0.243-0.191-0.313-0.642-0.313c-0.278 0-0.59 0.052-0.798 0.104l-0.139 0.052h-0.052l0.139-0.815 c0.45-0.139 0.763-0.191 1.11-0.191c0.833 0 1.3 0.4 1.3 1.076c0 0.2 0 0.313-0.052 0.711l-0.19 1.301l-0.035 0.2 l-0.035 0.19l-0.018 0.122V77.436L23.012 77.436z"/><path fill-rule="evenodd" clip-rule="evenodd" fill="#06326E" d="M9.878 74.573c0.19 0 0.5 0 0.7 0.052l0.139-0.85 c-0.277-0.035-0.642-0.07-0.868-0.07c-1.059 0-1.423 0.573-1.423 1.25c0 0.4 0.2 0.8 0.7 1 c0.399 0.2 0.5 0.2 0.5 0.382c0 0.226-0.208 0.364-0.59 0.364c-0.277 0-0.538-0.052-0.85-0.139l-0.104 0.833h0.017 l0.173 0.035c0.052 0 0.1 0 0.2 0.035c0.243 0 0.4 0 0.6 0.034c1.059 0 1.51-0.399 1.51-1.214 c0-0.503-0.243-0.798-0.729-1.006c-0.399-0.191-0.451-0.208-0.451-0.382C9.41 74.7 9.6 74.6 9.9 74.573L9.878 74.573z"/><path fill-rule="evenodd" clip-rule="evenodd" fill="#FFFFFF" d="M20.999 72.803l-0.156 0.972c-0.348-0.174-0.59-0.243-0.851-0.243 c-0.729 0-1.231 0.694-1.231 1.683c0 0.7 0.3 1.1 0.9 1.093c0.243 0 0.503-0.069 0.816-0.226l-0.173 1 c-0.348 0.087-0.573 0.122-0.85 0.122c-1.024 0-1.666-0.729-1.666-1.926c0-1.613 0.885-2.724 2.151-2.724 c0.173 0 0.3 0 0.4 0.035l0.399 0.104C20.895 72.8 20.9 72.8 21 72.803L20.999 72.803z"/><path fill-rule="evenodd" clip-rule="evenodd" fill="#FFFFFF" d="M17.929 73.48c-0.035-0.018-0.069-0.018-0.104-0.018 c-0.312 0-0.486 0.156-0.781 0.59l0.087-0.556h-0.885l-0.573 3.661h0.955c0.347-2.238 0.434-2.62 0.902-2.62 c0.018 0 0 0 0.1 0c0.086-0.434 0.19-0.763 0.364-1.058H17.929L17.929 73.48z"/><path fill-rule="evenodd" clip-rule="evenodd" fill="#FFFFFF" d="M12.394 77.105c-0.26 0.087-0.468 0.122-0.694 0.1 c-0.486 0-0.764-0.277-0.764-0.798c0-0.104 0.018-0.208 0.035-0.33l0.052-0.365l0.052-0.277l0.417-2.498h0.954l-0.104 0.538h0.486 l-0.138 0.902h-0.486l-0.26 1.51c0 0.069-0.017 0.121-0.017 0.156c0 0.2 0.1 0.3 0.3 0.277c0.121 0 0.19-0.017 0.26-0.035 L12.394 77.105L12.394 77.105z"/><path fill-rule="evenodd" clip-rule="evenodd" fill="#FFFFFF" d="M8.699 74.66c0 0.5 0.2 0.8 0.7 1 c0.399 0.2 0.5 0.2 0.5 0.417c0 0.226-0.173 0.33-0.555 0.33c-0.278 0-0.538-0.052-0.85-0.156l-0.139 0.85h0.052 l0.173 0.035c0.052 0 0.1 0 0.2 0.035c0.226 0 0.4 0 0.5 0.034c1.006 0 1.475-0.381 1.475-1.214 c0-0.503-0.191-0.798-0.677-1.024c-0.399-0.173-0.451-0.226-0.451-0.381c0-0.208 0.156-0.313 0.469-0.313 c0.19 0 0.5 0 0.7 0.069l0.138-0.85c-0.242-0.035-0.624-0.069-0.85-0.069C9.063 73.4 8.7 74 8.7 74.7 L8.699 74.66z"/><path fill-rule="evenodd" clip-rule="evenodd" fill="#FFFFFF" d="M28.338 77.158h-0.919l0.052-0.364 c-0.26 0.278-0.538 0.399-0.885 0.399c-0.694 0-1.163-0.589-1.163-1.509c0-1.214 0.712-2.238 1.562-2.238 c0.382 0 0.7 0.2 0.9 0.503l0.208-1.284h0.955L28.338 77.158L28.338 77.158z M26.915 76.29c0.451 0 0.764-0.502 0.764-1.231 c0-0.451-0.173-0.712-0.503-0.712c-0.434 0-0.746 0.503-0.746 1.232C26.43 76 26.6 76.3 26.9 76.29L26.915 76.29z"/><path fill-rule="evenodd" clip-rule="evenodd" fill="#FFFFFF" d="M15.326 77.071c-0.33 0.104-0.642 0.156-0.989 0.2 c-1.076 0-1.63-0.572-1.63-1.631c0-1.266 0.711-2.186 1.683-2.186c0.781 0 1.3 0.5 1.3 1.335c0 0.26-0.035 0.521-0.104 0.9 h-1.908c-0.018 0.052-0.018 0.069-0.018 0.104c0 0.4 0.3 0.6 0.8 0.642c0.33 0 0.642-0.069 0.989-0.225L15.326 77.1 L15.326 77.071z M14.789 74.902c0-0.07 0-0.139 0-0.191c0-0.295-0.156-0.468-0.452-0.468c-0.294 0-0.52 0.243-0.607 0.659H14.789 L14.789 74.902z"/><polygon fill-rule="evenodd" clip-rule="evenodd" fill="#FFFFFF" points="5.1,77.2 4.1,77.2 4.7,73.7 3.4,77.2 2.8,77.2 2.7,73.7 2.1,77.2 1.2,77.2 2,72.7 3.3,72.7 3.4,75.4 4.3,72.7 5.8,72.7 5.1,77.2"/><path fill-rule="evenodd" clip-rule="evenodd" fill="#FFFFFF" d="M7.432 75.527C7.328 75.5 7.3 75.5 7.2 75.5 c-0.538 0-0.815 0.191-0.815 0.555c0 0.2 0.1 0.4 0.3 0.382C7.137 76.4 7.4 76.1 7.4 75.527L7.432 75.527z M8.126 77.158H7.328l0.017-0.382c-0.243 0.295-0.555 0.434-1.006 0.434c-0.521 0-0.868-0.398-0.868-0.989 c0-0.884 0.608-1.405 1.683-1.405c0.104 0 0.2 0 0.4 0.017c0.035-0.104 0.035-0.156 0.035-0.225c0-0.243-0.156-0.33-0.607-0.33 c-0.277 0-0.59 0.035-0.798 0.104l-0.139 0.034L5.94 74.434l0.139-0.815c0.485-0.139 0.798-0.191 1.145-0.191 c0.833 0 1.3 0.4 1.3 1.058c0 0.191-0.017 0.33-0.086 0.729l-0.191 1.302l-0.035 0.225l-0.017 0.191l-0.018 0.1 L8.126 77.158L8.126 77.158z"/><path fill-rule="evenodd" clip-rule="evenodd" fill="#FFFFFF" d="M22.561 75.527c-0.104-0.017-0.156-0.017-0.225-0.017 c-0.539 0-0.816 0.191-0.816 0.555c0 0.2 0.1 0.4 0.3 0.382C22.248 76.4 22.5 76.1 22.6 75.527L22.561 75.527z M23.254 77.158h-0.798l0.018-0.382c-0.243 0.295-0.573 0.434-1.007 0.434c-0.52 0-0.884-0.398-0.884-0.989 c0-0.884 0.625-1.405 1.7-1.405c0.104 0 0.2 0 0.4 0.017c0.035-0.104 0.035-0.156 0.035-0.225c0-0.243-0.156-0.33-0.607-0.33 c-0.277 0-0.59 0.035-0.798 0.104l-0.139 0.034l-0.086 0.018l0.139-0.815c0.485-0.139 0.798-0.191 1.145-0.191 c0.833 0 1.3 0.4 1.3 1.058c0 0.191-0.018 0.33-0.087 0.729l-0.191 1.302l-0.034 0.225l-0.035 0.191l-0.018 0.122V77.158 L23.254 77.158z"/><path fill-rule="evenodd" clip-rule="evenodd" fill="#FFFFFF" d="M25.822 73.48c-0.018-0.018-0.052-0.018-0.087-0.018 c-0.313 0-0.503 0.156-0.798 0.59l0.086-0.556h-0.867l-0.59 3.661h0.971c0.33-2.238 0.434-2.62 0.885-2.62c0.035 0 0 0 0.1 0 c0.086-0.434 0.208-0.763 0.364-1.058H25.822L25.822 73.48z"/></g><g><g><polygon fill="#005098" points="10.8,92.8 12.3,84.1 14.7,84.1 13.2,92.8"/><path fill="#005098" d="M21.872 84.28c-0.475-0.178-1.218-0.369-2.146-0.369c-2.366 0-4.034 1.192-4.047 2.9 c-0.014 1.3 1.2 2 2.1 2.387c0.933 0.4 1.2 0.7 1.2 1.09c-0.006 0.588-0.744 0.858-1.433 0.9 c-0.958 0-1.468-0.134-2.254-0.461l-0.308-0.14l-0.336 1.967c0.559 0.2 1.6 0.5 2.7 0.468c2.518 0 4.152-1.178 4.17-3.001 c0.009-1-0.629-1.76-2.011-2.388c-0.837-0.406-1.35-0.677-1.345-1.089c0-0.366 0.435-0.756 1.372-0.756 c0.783-0.012 1.4 0.2 1.8 0.336l0.215 0.102L21.872 84.3"/><path fill="#005098" d="M28.013 84.072h-1.851c-0.573 0-1.002 0.157-1.254 0.729l-3.557 8.051h2.515c0 0 0.411-1.082 0.504-1.32 c0.275 0 2.7 0 3.1 0.003c0.072 0.3 0.3 1.3 0.3 1.316h2.223L28.013 84.1 M25.059 89.7 c0.198-0.506 0.955-2.456 0.955-2.456C26 87.3 26.2 86.8 26.3 86.44l0.162 0.757c0 0 0.5 2.1 0.6 2.537H25.059z"/><path fill="#005098" d="M8.783 84.07l-2.345 5.991l-0.25-1.218c-0.437-1.403-1.797-2.924-3.317-3.686l2.144 7.684l2.534-0.003 l3.77-8.769H8.783"/><path fill="#F6A500" d="M4.263 84.064H0.401l-0.03 0.183c3.004 0.7 5 2.5 5.8 4.597l-0.84-4.038 C5.204 84.2 4.8 84.1 4.3 84.1"/></g></g><g><path fill-rule="evenodd" clip-rule="evenodd" fill="#1D1D1B" d="M11.332 16.999H9.578V8.664h3.84c1.628 0 2.6 1 2.6 2.7 c0 0.746-0.418 2.654-2.672 2.654h-2.003V16.999L11.332 16.999z M12.959 12.52c1.294 0 1.294-0.912 1.294-1.285 c0-0.829-0.459-1.161-1.545-1.161h-1.377v2.446H12.959L12.959 12.52z"/><path fill-rule="evenodd" clip-rule="evenodd" fill="#1D1D1B" d="M17.384 16.999h-1.836l3.005-8.334h2.004l2.964 8.334h-1.92 l-0.542-1.742h-3.089L17.384 16.999L17.384 16.999z M18.428 13.806h2.17l-1.043-3.275h-0.042L18.428 13.806L18.428 13.806z"/><polygon fill-rule="evenodd" clip-rule="evenodd" fill="#1D1D1B" points="27.3,17 25.5,17 25.5,13.8 22.6,8.7 24.7,8.7 26.4,12.3 28.1,8.7 30.1,8.7 27.3,13.8 27.3,17"/><path fill-rule="evenodd" clip-rule="evenodd" fill="#1D1D1B" d="M4.029 12.21c0.52 0 0.936-0.192 0.936-0.694 c0-0.517-0.372-0.665-0.966-0.665H2.661v4.089h1.62c0.639 0 1.011-0.28 1.011-0.915c0-0.546-0.476-0.753-0.951-0.753H3.746V12.21 H4.029L4.029 12.21z"/><polygon fill-rule="evenodd" clip-rule="evenodd" fill="#1D1D1B" points="0.3,9.8 1.4,9.8 1.4,8.7 0.3,8.7 0.3,9.8"/><path fill-rule="evenodd" clip-rule="evenodd" fill="#1D1D1B" d="M2.661 8.667v1.092h1.635c1.531 0 1.9 1 1.9 1.6 c0 0.901-0.342 1.122-0.595 1.285C6.407 12.9 6.6 13.5 6.6 14.159c0 0.502-0.208 0.974-0.535 1.3 c-0.372 0.34-0.713 0.561-1.992 0.561H1.398v-5.167h-1.1v6.157h7.045V8.667H2.661L2.661 8.667z"/></g><path fill="#1D1D1B" d="M1.751 93.721H0.409v4.688h1.335c0.71 0 1.223-0.167 1.673-0.541c0.534-0.443 0.851-1.109 0.851-1.799 C4.268 94.7 3.2 93.7 1.8 93.721z M2.819 97.242c-0.287 0.259-0.66 0.373-1.251 0.373H1.323v-3.1h0.246 c0.591 0 0.9 0.1 1.3 0.379c0.316 0.3 0.5 0.7 0.5 1.167C3.326 96.5 3.1 97 2.8 97.242z"/><rect x="4.7" y="93.7" fill="#1D1D1B" width="0.9" height="4.7"/><path fill="#1D1D1B" d="M7.839 95.52c-0.549-0.203-0.71-0.337-0.71-0.59c0-0.295 0.287-0.52 0.681-0.52 c0.274 0 0.5 0.1 0.7 0.379l0.479-0.626c-0.394-0.344-0.863-0.52-1.377-0.52c-0.829 0-1.462 0.576-1.462 1.3 c0 0.6 0.3 1 1.2 1.285c0.358 0.1 0.5 0.2 0.6 0.267c0.183 0.1 0.3 0.3 0.3 0.5 c0 0.379-0.302 0.661-0.71 0.661c-0.436 0-0.788-0.218-0.998-0.625l-0.591 0.568c0.421 0.6 0.9 0.9 1.6 0.9 c0.95 0 1.617-0.632 1.617-1.539C9.187 96.2 8.9 95.9 7.8 95.52z"/><path fill="#1D1D1B" d="M9.476 96.068c0 1.4 1.1 2.4 2.5 2.446c0.394 0 0.731-0.077 1.146-0.273v-1.076 c-0.366 0.366-0.689 0.513-1.104 0.513c-0.92 0-1.574-0.667-1.574-1.617c0-0.9 0.674-1.61 1.532-1.61 c0.436 0 0.8 0.2 1.1 0.527v-1.076c-0.401-0.204-0.731-0.288-1.125-0.288C10.586 93.6 9.5 94.7 9.5 96.068z"/><polygon fill="#1D1D1B" points="20.3,96.9 19.1,93.7 18.1,93.7 20.1,98.5 20.6,98.5 22.6,93.7 21.6,93.7"/><polygon fill="#1D1D1B" points="23,98.4 25.6,98.4 25.6,97.6 23.9,97.6 23.9,96.3 25.5,96.3 25.5,95.6 23.9,95.6 23.9,94.5 25.6,94.5 25.6,93.7 23,93.7"/><path fill="#1D1D1B" d="M29.23 95.104c0-0.877-0.604-1.384-1.659-1.384h-1.356v4.688h0.914v-1.883h0.119l1.266 1.883h1.125 l-1.476-1.975C28.851 96.3 29.2 95.8 29.2 95.104z M27.396 95.879h-0.267v-1.42h0.282c0.569 0 0.9 0.2 0.9 0.7 C28.29 95.6 28 95.9 27.4 95.879z"/><circle fill="#EF7622" cx="15.9" cy="96.1" r="2.5"/><g><path fill="#1D1D1B" d="M29.718 93.813c0-0.082-0.056-0.126-0.156-0.126H29.43v0.412h0.098v-0.16l0.115 0.16h0.12l-0.136-0.17 C29.687 93.9 29.7 93.9 29.7 93.813z M29.545 93.87h-0.017v-0.108h0.018c0.049 0 0.1 0 0.1 0.1 C29.62 93.9 29.6 93.9 29.5 93.87z"/><path fill="#1D1D1B" d="M29.583 93.533c-0.201 0-0.359 0.16-0.359 0.359c0 0.2 0.2 0.4 0.4 0.4 c0.195 0 0.354-0.162 0.354-0.359C29.937 93.7 29.8 93.5 29.6 93.533z M29.581 94.187c-0.157 0-0.286-0.131-0.286-0.295 c0-0.164 0.127-0.295 0.286-0.295c0.157 0 0.3 0.1 0.3 0.295C29.865 94.1 29.7 94.2 29.6 94.187z"/></g><path fill="#004A97" d="M6.042 106.352c2.082 0 3.982-1.698 3.982-3.775c0-2.271-1.9-3.841-3.982-3.841H4.25 c-2.106 0-3.841 1.57-3.841 3.841c0 2.1 1.7 3.8 3.8 3.775H6.042z"/><path fill="#FFFFFF" d="M5.049 104.6v-4.125c0.829 0.3 1.4 1.1 1.4 2.062C6.467 103.5 5.9 104.3 5 104.6 M2.049 102.537c0.002-0.941 0.589-1.743 1.418-2.062v4.125C2.639 104.3 2.1 103.5 2 102.5 M4.259 99.1 c-1.925 0.001-3.485 1.562-3.486 3.486c0.001 1.9 1.6 3.5 3.5 3.486c1.925 0 3.486-1.561 3.486-3.486 C7.745 100.6 6.2 99.1 4.3 99.1"/><path fill="#1D1D1B" d="M11.637 102.253c0 0.3 0.2 0.3 0.4 0.344c0.865 0 1.149-0.653 1.149-1.25 c0-0.749-0.48-1.29-1.253-1.29c-0.165 0-0.24 0.012-0.313 0.016V102.253z M11.245 100.375c0-0.36-0.188-0.336-0.368-0.34v-0.104 c0.156 0 0.3 0 0.5 0.007c0.168 0 0.396-0.007 0.693-0.007c1.037 0 1.6 0.7 1.6 1.4 c0 0.397-0.232 1.394-1.65 1.394c-0.204 0-0.393-0.008-0.581-0.008c-0.18 0-0.357 0.004-0.537 0.008v-0.104 c0.24-0.024 0.356-0.032 0.368-0.305V100.375z"/><path fill="#1D1D1B" d="M14.213 100.279c-0.104 0-0.196-0.096-0.196-0.2c0-0.1 0.096-0.193 0.196-0.193 c0.104 0 0.2 0.1 0.2 0.193C14.41 100.2 14.3 100.3 14.2 100.3 M13.785 102.622h0.076c0.112 0 0.2 0 0.192-0.133 v-1.085c0-0.176-0.06-0.201-0.208-0.28v-0.064c0.188-0.056 0.413-0.131 0.428-0.144c0.028-0.016 0.052-0.021 0.072-0.021 c0.021 0 0 0 0 0.057v1.537c0 0.1 0.1 0.1 0.2 0.133h0.068v0.104c-0.137 0-0.276-0.008-0.421-0.008 c-0.144 0-0.288 0.004-0.436 0.008V102.622z"/><path fill="#1D1D1B" d="M15.022 101.428c0-0.148-0.044-0.188-0.232-0.264v-0.076c0.172-0.056 0.336-0.108 0.529-0.193 c0.012 0 0 0 0 0.04v0.261c0.229-0.164 0.425-0.301 0.693-0.301c0.34 0 0.5 0.2 0.5 0.561v1.033 c0 0.1 0.1 0.1 0.2 0.133h0.072v0.104c-0.141 0-0.281-0.008-0.425-0.008c-0.145 0-0.289 0.004-0.433 0.008v-0.104h0.072 c0.113 0 0.2 0 0.192-0.133v-1.037c0-0.229-0.14-0.34-0.368-0.34c-0.128 0-0.333 0.104-0.465 0.193v1.185 c0 0.1 0.1 0.1 0.2 0.133h0.072v0.104c-0.14 0-0.28-0.008-0.425-0.008c-0.144 0-0.289 0.004-0.432 0.008v-0.104h0.072 c0.112 0 0.2 0 0.192-0.133V101.428z"/><path fill="#1D1D1B" d="M17.782 101.493c0.1 0 0.112-0.052 0.112-0.101c0-0.204-0.125-0.368-0.349-0.368 c-0.244 0-0.412 0.18-0.459 0.469H17.782z M17.073 101.621c-0.008 0.036-0.008 0.1 0 0.232c0.023 0.4 0.3 0.7 0.6 0.7 c0.22 0 0.393-0.12 0.541-0.268l0.056 0.056c-0.184 0.245-0.413 0.453-0.741 0.453c-0.637 0-0.765-0.617-0.765-0.873 c0-0.786 0.528-1.018 0.809-1.018c0.325 0 0.7 0.2 0.7 0.629c0 0 0 0.048-0.003 0.072l-0.037 0.024H17.073z"/><path fill="#1D1D1B" d="M18.331 102.622h0.108c0.112 0 0.2 0 0.192-0.133v-1.125c0-0.125-0.148-0.149-0.208-0.181v-0.06 c0.292-0.124 0.453-0.229 0.489-0.229c0.023 0 0 0 0 0.052v0.361h0.008c0.1-0.156 0.269-0.413 0.513-0.413 c0.1 0 0.2 0.1 0.2 0.212c0 0.108-0.076 0.205-0.188 0.205c-0.125 0-0.125-0.097-0.265-0.097 c-0.068 0-0.292 0.093-0.292 0.333v0.94c0 0.1 0.1 0.1 0.2 0.133h0.224v0.104c-0.22-0.004-0.388-0.008-0.561-0.008 c-0.164 0-0.333 0.004-0.477 0.008V102.622z"/><path fill="#1D1D1B" d="M19.873 102.169c0.052 0.3 0.2 0.5 0.5 0.489c0.236 0 0.324-0.144 0.324-0.284 c0-0.473-0.873-0.321-0.873-0.966c0-0.224 0.181-0.513 0.621-0.513c0.127 0 0.3 0 0.5 0.116l0.028 0.409h-0.092 c-0.04-0.252-0.18-0.396-0.437-0.396c-0.161 0-0.313 0.092-0.313 0.264c0 0.5 0.9 0.3 0.9 1 c0 0.264-0.212 0.544-0.689 0.544c-0.16 0-0.348-0.056-0.488-0.136l-0.044-0.461L19.873 102.169z"/><path fill="#1D1D1B" d="M24.639 100.655h-0.1c-0.076-0.469-0.408-0.657-0.856-0.657c-0.461 0-1.13 0.309-1.13 1.3 c0 0.8 0.6 1.4 1.2 1.391c0.396 0 0.725-0.272 0.805-0.693l0.092 0.023l-0.092 0.585c-0.168 0.104-0.621 0.212-0.885 0.2 c-0.937 0-1.53-0.604-1.53-1.506c0-0.821 0.733-1.41 1.518-1.41c0.325 0 0.6 0.1 0.9 0.212L24.639 100.655z"/><path fill="#1D1D1B" d="M24.784 102.622h0.075c0.112 0 0.2 0 0.193-0.133v-2.23c0-0.26-0.06-0.269-0.212-0.313v-0.063 c0.16-0.052 0.328-0.125 0.412-0.173c0.044-0.024 0.076-0.044 0.088-0.044c0.024 0 0 0 0 0.056v2.767 c0 0.1 0.1 0.1 0.2 0.133h0.067v0.104c-0.136 0-0.276-0.008-0.42-0.008c-0.145 0-0.289 0.004-0.437 0.008V102.622z"/><path fill="#1D1D1B" d="M27.355 102.505c0 0.1 0 0.1 0.1 0.077c0.048 0 0.108-0.004 0.16-0.004v0.084 c-0.172 0.016-0.5 0.1-0.577 0.124l-0.02-0.012v-0.324c-0.24 0.196-0.424 0.336-0.709 0.336c-0.216 0-0.44-0.14-0.44-0.477v-1.025 c0-0.104-0.016-0.204-0.24-0.225v-0.076c0.144-0.004 0.464-0.028 0.517-0.028c0.044 0 0 0 0 0.116v1.033 c0 0.1 0 0.5 0.3 0.465c0.136 0 0.316-0.104 0.484-0.244v-1.078c0-0.08-0.192-0.124-0.336-0.164v-0.072 c0.36-0.024 0.585-0.056 0.625-0.056c0.032 0 0 0 0 0.072V102.505z"/><path fill="#1D1D1B" d="M28.152 102.273c0 0.2 0.1 0.4 0.4 0.409c0.429 0 0.609-0.421 0.609-0.778 c0-0.433-0.328-0.793-0.641-0.793c-0.149 0-0.272 0.096-0.381 0.188V102.273z M28.152 101.184c0.16-0.136 0.377-0.289 0.597-0.289 c0.464 0 0.7 0.4 0.7 0.841c0 0.524-0.385 1.049-0.958 1.049c-0.296 0-0.452-0.096-0.557-0.14l-0.12 0.092l-0.084-0.044 c0.035-0.236 0.056-0.468 0.056-0.712v-1.723c0-0.26-0.061-0.269-0.212-0.313v-0.063c0.161-0.052 0.328-0.125 0.413-0.173 c0.044-0.024 0.076-0.044 0.088-0.044c0.024 0 0 0 0 0.056V101.184z"/><path fill="#1D1D1B" d="M10.872 105.055h0.031c0.079 0 0.161-0.011 0.161-0.124v-1.142c0-0.113-0.083-0.125-0.161-0.125h-0.031 v-0.065c0.085 0 0.2 0 0.3 0.009c0.109 0 0.239-0.009 0.342-0.009v0.065h-0.031c-0.078 0-0.161 0.011-0.161 0.125v1.142 c0 0.1 0.1 0.1 0.2 0.124h0.031v0.065c-0.105 0-0.236-0.008-0.344-0.008c-0.107 0-0.236 0.008-0.321 0.008V105.055z"/><path fill="#1D1D1B" d="M11.527 105.111l0-0.046h-0.021c-0.078 0-0.171-0.014-0.171-0.134v-1.142c0-0.12 0.093-0.134 0.171-0.134 h0.021v-0.046c-0.101 0-0.227 0.008-0.332 0.008c-0.104 0-0.229-0.008-0.313-0.008v0.046h0.021c0.078 0 0.2 0 0.2 0.134v1.142 c0 0.12-0.093 0.134-0.17 0.134h-0.021v0.046c0.085-0.001 0.208-0.009 0.311-0.009C11.299 105.1 11.4 105.1 11.5 105.1 M11.537 105.13c-0.105 0-0.236-0.009-0.345-0.009c-0.106 0-0.234 0.009-0.32 0.009h-0.009v-0.009v-0.065v-0.01h0.009h0.031 c0.079-0.001 0.151-0.008 0.151-0.114v-1.142c0-0.106-0.073-0.113-0.151-0.115h-0.04v-0.01v-0.075h0.009 c0.086 0 0.2 0 0.3 0.009c0.108 0 0.239-0.009 0.342-0.009h0.01v0.01v0.075h-0.01h-0.03 c-0.079 0.001-0.152 0.008-0.152 0.115v1.142c0 0.1 0.1 0.1 0.2 0.114h0.04v0.01v0.075H11.537z"/><path fill="#1D1D1B" d="M13.034 104.691l0.005-0.004v-0.817c0-0.179-0.125-0.205-0.19-0.205h-0.048v-0.065 c0.103 0 0.2 0 0.3 0.009c0.09 0 0.179-0.009 0.269-0.009v0.065h-0.033c-0.092 0-0.194 0.018-0.194 0.277v0.992 c0 0.1 0 0.2 0 0.22h-0.083l-1.122-1.251v0.898c0 0.2 0 0.3 0.2 0.255h0.037v0.065 c-0.094 0-0.187-0.008-0.281-0.008c-0.098 0-0.198 0.008-0.296 0.008v-0.065h0.031c0.15 0 0.196-0.103 0.196-0.276v-0.918 c0-0.122-0.101-0.196-0.199-0.196H11.62v-0.065c0.083 0 0.2 0 0.2 0.009c0.065 0 0.129-0.009 0.194-0.009L13.034 104.691z"/><path fill="#1D1D1B" d="M13.029 104.687L13.029 104.687l-0.002-0.002L13.029 104.687z M13.034 104.691l0.007-0.006L13.034 104.691z M13.078 105.144h0.072c-0.01-0.065-0.012-0.138-0.012-0.21v-0.992c0-0.262 0.109-0.286 0.204-0.286h0.023v-0.046 c-0.085 0-0.172 0.008-0.259 0.008c-0.099 0-0.196-0.008-0.295-0.008l0 0.046h0.039c0.067 0 0.2 0 0.2 0.215l-0.002 0.8 l-0.004 0.004l-0.007 0.007l-0.97-1.096c-0.064 0-0.127 0.008-0.194 0.008c-0.08 0-0.162-0.008-0.241-0.008l0 0.046h0.019 c0.103 0 0.2 0.1 0.2 0.205v0.918c0 0.174-0.048 0.286-0.205 0.286l-0.021 0v0.047c0.094-0.001 0.191-0.009 0.287-0.009 c0.091 0 0.2 0 0.3 0.009v-0.046H12.16c-0.171 0-0.214-0.076-0.214-0.265v-0.923L13.078 105.144z M13.16 105.2 l-0.089-0.003l-1.106-1.232v0.874c0.003 0.2 0 0.2 0.2 0.245h0.046v0.01v0.075h-0.009c-0.094 0-0.188-0.009-0.281-0.009 c-0.097 0-0.198 0.009-0.296 0.009h-0.01v-0.009v-0.075h0.01h0.031c0.144-0.001 0.185-0.093 0.187-0.267v-0.918 c0-0.115-0.096-0.186-0.189-0.186H11.61v-0.01v-0.075h0.01c0.083 0 0.2 0 0.2 0.008c0.065 0 0.128-0.008 0.201-0.005 l0.958 1.078v-0.801c-0.001-0.174-0.117-0.194-0.18-0.196h-0.058v-0.01v-0.075h0.01c0.103 0 0.2 0 0.3 0 c0.089 0 0.178-0.008 0.269-0.008h0.009v0.009v0.075h-0.009h-0.033c-0.09 0.002-0.182 0.01-0.185 0.267v0.992 c0 0.1 0 0.2 0 0.218l0.002 0.011H13.16z"/><path fill="#1D1D1B" d="M13.701 103.708c-0.164 0-0.17 0.039-0.203 0.198h-0.065c0.009-0.061 0.02-0.122 0.026-0.186 c0.009-0.061 0.013-0.122 0.013-0.185h0.052c0.018 0.1 0.1 0.1 0.1 0.063h1.125c0.059 0 0.113-0.002 0.118-0.067 l0.052 0.009c-0.009 0.059-0.018 0.118-0.024 0.176c-0.003 0.059-0.003 0.118-0.003 0.177l-0.065 0 c-0.005-0.081-0.016-0.209-0.161-0.209h-0.358v1.159c0 0.2 0.1 0.2 0.2 0.188h0.042v0.065c-0.085 0-0.238-0.008-0.355-0.008 c-0.131 0-0.284 0.008-0.369 0.008v-0.065h0.042c0.12 0 0.181-0.011 0.181-0.183v-1.164H13.701z"/><path fill="#1D1D1B" d="M14.56 105.13c-0.085 0-0.238-0.009-0.355-0.009c-0.13 0-0.283 0.009-0.369 0.009h-0.009v-0.009v-0.075 h0.009h0.042c0.12-0.002 0.168-0.004 0.171-0.173v-1.155h-0.348v-0.009v-0.01h0.367v1.174c0 0.174-0.07 0.192-0.19 0.192h-0.032 v0.046c0.085 0 0.232-0.008 0.359-0.008c0.113 0 0.3 0 0.3 0.008v-0.046h-0.032c-0.105 0-0.19-0.026-0.19-0.197v-1.169 h0.368c0.146 0 0.2 0.1 0.2 0.206l0.047-0.018c0-0.056 0-0.114 0.004-0.171c0.006-0.056 0.014-0.111 0.022-0.167l-0.033-0.005 c-0.011 0.063-0.072 0.066-0.126 0.066h-1.124h-0.011c-0.051 0-0.107-0.002-0.127-0.063h-0.036c0 0.061-0.005 0.119-0.013 0.2 c-0.007 0.06-0.017 0.118-0.025 0.175h0.047c0.029-0.152 0.047-0.201 0.21-0.199v0.01v0.009c-0.162 0.003-0.158 0.03-0.193 0.2 l-0.002 0.008h-0.008h-0.076l0.001-0.012c0.009-0.061 0.021-0.122 0.026-0.185c0.009-0.061 0.013-0.121 0.013-0.184v-0.009h0.01 h0.06l0.002 0.007c0.015 0.1 0.1 0.1 0.1 0.056h0.011h1.124c0.061 0 0.105-0.001 0.109-0.059l0.001-0.01l0.01 0 l0.062 0.01l-0.001 0.009c-0.009 0.059-0.018 0.118-0.024 0.176c-0.004 0.058-0.004 0.117-0.004 0.176v0.007l-0.006 0 l-0.078 0.028v-0.013c-0.006-0.082-0.015-0.2-0.152-0.2h-0.349v1.15c0.002 0.2 0.1 0.2 0.2 0.178h0.051v0.01v0.075H14.56z"/><path fill="#1D1D1B" d="M15.02 105.055h0.03c0.078 0 0.161-0.011 0.161-0.124v-1.142c0-0.113-0.083-0.125-0.161-0.125h-0.03v-0.065 c0.132 0 0.4 0 0.5 0.009c0.184 0 0.41-0.009 0.558-0.009c-0.004 0.094-0.001 0.2 0 0.334l-0.065 0 c-0.01-0.142-0.037-0.255-0.266-0.255H15.49v0.571h0.259c0.131 0 0.16-0.074 0.172-0.192h0.065c-0.004 0.085-0.007 0.17-0.007 0.3 c0 0.1 0 0.2 0 0.249l-0.065 0.013c-0.013-0.131-0.019-0.216-0.17-0.216H15.49v0.508c0 0.1 0.1 0.1 0.3 0.1 c0.261 0 0.377-0.018 0.442-0.266l0.061 0.015c-0.029 0.116-0.055 0.231-0.074 0.347c-0.14 0-0.39-0.008-0.586-0.008 s-0.456 0.008-0.58 0.008V105.055z"/><path fill="#1D1D1B" d="M16.177 105.111c0.019-0.11 0.044-0.22 0.071-0.33l-0.043-0.011c-0.065 0.244-0.191 0.265-0.449 0.3 c-0.137 0-0.275 0-0.275-0.151v-0.517h0.271c0.152-0.001 0.2 0.1 0.2 0.214l0.047-0.01c-0.004-0.081-0.006-0.161-0.006-0.241 c0-0.082 0.002-0.164 0.006-0.246H15.93c-0.012 0.114-0.048 0.193-0.181 0.192H15.48v-0.59h0.313 c0.227-0.001 0.3 0.1 0.3 0.252l0.047-0.013c-0.004-0.061-0.007-0.14-0.007-0.213c0-0.038 0.001-0.073 0.002-0.104 c-0.148 0-0.369 0.008-0.548 0.008s-0.399-0.008-0.533-0.008v0.046h0.021c0.078 0 0.2 0 0.2 0.134v1.142 c0 0.12-0.093 0.133-0.171 0.134h-0.021v0.046c0.127 0 0.379-0.008 0.571-0.008C15.792 105.1 16 105.1 16.2 105.1 M16.185 105.13c-0.14 0-0.391-0.009-0.586-0.009c-0.196 0-0.455 0.009-0.58 0.009h-0.01v-0.009v-0.065v-0.01h0.01h0.03 c0.079-0.001 0.15-0.008 0.152-0.114v-1.142c-0.001-0.106-0.073-0.113-0.152-0.115h-0.04v-0.01v-0.075h0.01 c0.133 0 0.4 0 0.5 0.008c0.183 0 0.41-0.008 0.558-0.008h0.01l0 0.01c-0.001 0.033-0.002 0.072-0.002 0.1 c0 0.1 0 0.2 0 0.22v0.008l-0.007 0.002l-0.077 0.02l0-0.011c-0.013-0.141-0.032-0.244-0.256-0.246H15.5l0 0.552h0.25 c0.126-0.001 0.148-0.065 0.163-0.183l0.001-0.009h0.008h0.075l0 0.01c-0.004 0.085-0.007 0.17-0.007 0.3 c0 0.1 0 0.2 0 0.248l0 0.008l-0.008 0.001l-0.075 0.015l-0.001-0.01c-0.015-0.133-0.016-0.206-0.161-0.208H15.5v0.499 c0 0.1 0.1 0.1 0.3 0.132c0.262-0.001 0.368-0.014 0.433-0.259l0.002-0.009l0.009 0.002l0.07 0.018l-0.002 0 c-0.028 0.116-0.054 0.231-0.073 0.346l-0.002 0.008H16.185z"/><path fill="#1D1D1B" d="M16.833 104.335h0.106c0.218 0 0.335-0.083 0.335-0.339c0-0.194-0.125-0.318-0.318-0.318 c-0.065 0-0.093 0.006-0.124 0.008V104.335z M16.554 103.831c0-0.159-0.087-0.166-0.155-0.166h-0.039v-0.065 c0.07 0 0.2 0 0.3 0.009c0.13 0 0.235-0.009 0.351-0.009c0.274 0 0.5 0.1 0.5 0.384c0 0.196-0.131 0.316-0.303 0.4 l0.373 0.557c0.062 0.1 0.1 0.1 0.2 0.131v0.065c-0.072 0-0.142-0.008-0.214-0.008c-0.067 0-0.138 0.008-0.205 0 c-0.168-0.22-0.312-0.456-0.454-0.706h-0.144v0.467c0 0.2 0.1 0.2 0.2 0.174h0.04v0.065c-0.125 0-0.25-0.008-0.375-0.008 c-0.104 0-0.207 0.008-0.316 0.008v-0.065h0.039c0.081 0 0.155-0.037 0.155-0.118V103.831z"/><path fill="#1D1D1B" d="M16.939 104.326c0.216-0.002 0.325-0.077 0.327-0.33c-0.001-0.19-0.12-0.308-0.31-0.309 c-0.059 0-0.086 0.005-0.114 0.008v0.631H16.939z M16.833 104.345h-0.01v-0.667l0.008-0.001c0.03-0.002 0.059-0.008 0.125-0.008 c0.199 0 0.3 0.1 0.3 0.327c0 0.26-0.125 0.349-0.345 0.349H16.833z M16.833 104.405h0.148l0.003 0 c0.142 0.2 0.3 0.5 0.4 0.702c0.067 0 0.137-0.009 0.205-0.009c0.069 0 0.1 0 0.2 0.008v-0.047 c-0.103-0.013-0.15-0.043-0.209-0.134l-0.379-0.567l0.011-0.004c0.17-0.067 0.297-0.184 0.297-0.375 c0-0.302-0.235-0.372-0.509-0.374c-0.115 0-0.219 0.008-0.351 0.008c-0.128 0-0.257-0.008-0.329-0.008v0.046h0.03 c0.068 0 0.2 0 0.2 0.175v1.107c0 0.087-0.082 0.127-0.164 0.127h-0.03v0.046c0.105 0 0.204-0.008 0.307-0.008 c0.122 0 0.2 0 0.4 0.008v-0.046h-0.03c-0.1 0-0.188-0.013-0.188-0.184v-0.476H16.833z M17.848 105.1 c-0.073 0-0.143-0.009-0.214-0.009c-0.066 0-0.136 0.009-0.212 0.005c-0.167-0.219-0.311-0.453-0.451-0.702h-0.129v0.457 c0.002 0.2 0.1 0.2 0.2 0.165h0.049v0.01v0.075h-0.01c-0.125 0-0.251-0.009-0.375-0.009c-0.104 0-0.207 0.009-0.316 0 h-0.01v-0.009v-0.075h0.01h0.039c0.079 0 0.145-0.034 0.146-0.108v-1.107c-0.002-0.155-0.078-0.155-0.146-0.156H16.35v-0.01v-0.075 h0.01c0.07 0 0.2 0 0.3 0.009c0.13 0 0.235-0.009 0.351-0.009c0.274 0 0.5 0.1 0.5 0.4 c0 0.197-0.13 0.32-0.298 0.389l0.366 0.548c0.061 0.1 0.1 0.1 0.2 0.126l0.008 0.001v0.008v0.075H17.848z"/><path fill="#1D1D1B" d="M19.328 104.691l0.004-0.004v-0.817c0-0.179-0.124-0.205-0.189-0.205h-0.048v-0.065 c0.102 0 0.2 0 0.3 0.009c0.089 0 0.178-0.009 0.269-0.009v0.065h-0.033c-0.091 0-0.194 0.018-0.194 0.277v0.992 c0 0.1 0 0.2 0 0.22h-0.083l-1.122-1.251v0.898c0 0.2 0 0.3 0.2 0.255h0.037v0.065 c-0.094 0-0.188-0.008-0.281-0.008c-0.098 0-0.198 0.008-0.296 0.008v-0.065h0.031c0.15 0 0.196-0.103 0.196-0.276v-0.918 c0-0.122-0.1-0.196-0.198-0.196h-0.028v-0.065c0.083 0 0.2 0 0.3 0.009c0.064 0 0.128-0.009 0.193-0.009L19.328 104.691z"/><path fill="#1D1D1B" d="M19.322 104.687L19.322 104.687l-0.001-0.003L19.322 104.687z M19.328 104.691l0.006-0.006L19.328 104.691z M19.371 105.144h0.072c-0.01-0.065-0.012-0.138-0.012-0.21v-0.992c0-0.262 0.111-0.286 0.204-0.286h0.023v-0.046 c-0.085 0-0.172 0.008-0.258 0.008c-0.1 0-0.197-0.008-0.296-0.008v0.046h0.039c0.067 0 0.2 0 0.2 0.214l-0.003 0.8 l-0.004 0.004l-0.007 0.007l-0.97-1.096c-0.065 0-0.128 0.008-0.193 0.008c-0.081 0-0.163-0.008-0.242-0.008v0.046h0.02 c0.102 0 0.2 0.1 0.2 0.205v0.918c0 0.175-0.049 0.286-0.206 0.287h-0.021v0.046c0.094 0 0.191-0.008 0.287-0.008 c0.092 0 0.2 0 0.3 0.008v-0.046h-0.028c-0.172 0-0.214-0.076-0.215-0.265v-0.922L19.371 105.144z M19.454 105.2 l-0.09-0.003l-1.106-1.232v0.874c0.003 0.2 0 0.2 0.2 0.245H18.5v0.01v0.075H18.49c-0.094 0-0.188-0.009-0.281-0.009 c-0.097 0-0.198 0.009-0.296 0.009h-0.01v-0.009v-0.075h0.01h0.03c0.144 0 0.185-0.093 0.187-0.267v-0.918 c0-0.116-0.095-0.186-0.188-0.186h-0.038v-0.01v-0.075h0.01c0.083 0 0.2 0 0.3 0.009c0.064 0 0.127-0.009 0.2-0.006 l0.958 1.079v-0.802c0-0.173-0.116-0.195-0.18-0.195h-0.057v-0.01v-0.075h0.009c0.103 0 0.2 0 0.3 0 c0.089 0 0.178-0.009 0.268-0.009h0.01v0.01v0.075h-0.01h-0.033c-0.09 0.001-0.182 0.01-0.185 0.267v0.992 c0 0.1 0 0.2 0 0.219l0.001 0.01H19.454z"/><path fill="#1D1D1B" d="M20.336 103.844h-0.005l-0.203 0.616h0.408L20.336 103.844z M20.018 104.8 c-0.022 0.074-0.048 0.131-0.048 0.17c0 0.1 0.1 0.1 0.2 0.077h0.024v0.065c-0.087-0.005-0.176-0.008-0.264-0.008 c-0.079 0-0.157 0.003-0.235 0.008v-0.065h0.014c0.085 0 0.157-0.05 0.189-0.142l0.349-1c0.028-0.081 0.067-0.19 0.081-0.27 c0.07-0.024 0.157-0.067 0.198-0.094c0.007-0.002 0.011-0.005 0.018-0.005c0.006 0 0 0 0 0 c0.007 0 0 0 0 0.055l0.401 1.14c0.026 0.1 0.1 0.2 0.1 0.222c0.026 0.1 0.1 0.1 0.1 0.087h0.013 v0.065c-0.098-0.005-0.196-0.008-0.301-0.008c-0.107 0-0.216 0.003-0.327 0.008v-0.065h0.024c0.05 0 0.135-0.009 0.135-0.063 c0-0.029-0.02-0.087-0.044-0.157l-0.085-0.252h-0.494L20.018 104.809z"/><path fill="#1D1D1B" d="M20.327 103.846l0.005-0.002L20.327 103.846z M20.142 104.451h0.381l-0.189-0.584L20.142 104.451z M20.116 104.469l0.208-0.635h0.007h0.004v0.01l-0.002 0l0.002 0v-0.01h0.006l0.207 0.635H20.116z M20.562 105.1 c0.108-0.004 0.213-0.008 0.317-0.008c0.102 0 0.2 0 0.3 0.008v-0.045h-0.003c-0.074 0-0.126-0.029-0.152-0.093 c-0.029-0.066-0.056-0.146-0.081-0.223l-0.401-1.14c-0.007-0.018-0.013-0.037-0.019-0.053c-0.002-0.002-0.001-0.002-0.004-0.002 h-0.003c-0.005 0-0.007 0.001-0.013 0.003c-0.042 0.027-0.129 0.07-0.194 0.087c-0.013 0.082-0.052 0.191-0.081 0.272l-0.348 1 c-0.034 0.095-0.11 0.148-0.199 0.148h-0.003v0.045c0.075-0.004 0.15-0.008 0.226-0.008c0.084 0 0.2 0 0.3 0.008v-0.045 h-0.014c-0.071 0-0.17-0.009-0.172-0.086c0-0.043 0.026-0.099 0.048-0.173l0.009 0.002l-0.009-0.002l0.072-0.233h0.508l0.087 0.3 c0.024 0.1 0 0.1 0 0.16c-0.003 0.067-0.095 0.071-0.144 0.073h-0.015V105.11z M21.179 105.1 c-0.098-0.004-0.196-0.009-0.3-0.009c-0.107 0-0.215 0.004-0.327 0.009l-0.01 0v-0.01v-0.075h0.01h0.024 c0.05 0 0.125-0.011 0.125-0.053c0.001-0.025-0.019-0.085-0.043-0.154l-0.083-0.247h-0.48l-0.068 0.2 c-0.022 0.074-0.048 0.132-0.048 0.167c0.001 0.1 0.1 0.1 0.2 0.066h0.034v0.01v0.075l-0.01 0 c-0.087-0.004-0.177-0.009-0.263-0.009c-0.078 0-0.157 0.004-0.235 0.009l-0.01 0v-0.01v-0.075h0.009h0.013 c0.082 0 0.149-0.046 0.18-0.135l0.349-1c0.028-0.081 0.068-0.189 0.087-0.276c0.068-0.023 0.156-0.067 0.198-0.093 c0.006-0.002 0.012-0.005 0.021-0.005c0.005 0 0 0 0 0.013c0.006 0 0 0 0 0.055l0.401 1.1 c0.026 0.1 0.1 0.2 0.1 0.222c0.025 0.1 0.1 0.1 0.1 0.081h0.022v0.01v0.075L21.179 105.13z"/><path fill="#1D1D1B" d="M21.275 103.708c-0.163 0-0.17 0.039-0.203 0.198h-0.065c0.008-0.061 0.02-0.122 0.026-0.186 c0.009-0.061 0.013-0.122 0.013-0.185h0.052c0.017 0.1 0.1 0.1 0.1 0.063h1.125c0.058 0 0.113-0.002 0.117-0.067l0.052 0 c-0.008 0.059-0.017 0.118-0.023 0.176c-0.005 0.059-0.005 0.118-0.005 0.177l-0.065 0.024c-0.004-0.081-0.015-0.209-0.161-0.209 h-0.357v1.159c0 0.2 0.1 0.2 0.2 0.188h0.042v0.065c-0.085 0-0.237-0.008-0.355-0.008c-0.131 0-0.284 0.008-0.369 0 v-0.065h0.042c0.12 0 0.181-0.011 0.181-0.183v-1.164H21.275z"/><path fill="#1D1D1B" d="M22.134 105.13c-0.085 0-0.238-0.009-0.355-0.009c-0.131 0-0.283 0.009-0.369 0.009h-0.01v-0.009v-0.075 h0.01h0.042c0.12-0.002 0.168-0.004 0.171-0.173v-1.155h-0.348v-0.009v-0.01h0.367v1.174c0 0.174-0.071 0.192-0.19 0.192H21.42 v0.046c0.086-0.001 0.232-0.009 0.359-0.009c0.113 0 0.3 0 0.3 0.009l0-0.046h-0.032c-0.105 0-0.19-0.026-0.19-0.197v-1.169 h0.367c0.146 0 0.2 0.1 0.2 0.206l0.047-0.018c0-0.056 0-0.114 0.004-0.171c0.006-0.056 0.014-0.112 0.022-0.167l-0.033-0.005 c-0.01 0.063-0.071 0.067-0.125 0.066h-1.125h-0.011c-0.052 0-0.107-0.002-0.127-0.063h-0.036c0 0.06-0.005 0.119-0.013 0.2 c-0.006 0.061-0.017 0.118-0.025 0.175h0.047c0.029-0.152 0.048-0.201 0.21-0.199v0.01v0.009c-0.161 0.002-0.158 0.03-0.193 0.2 l-0.002 0.008h-0.007h-0.076l0.001-0.011c0.009-0.061 0.02-0.122 0.026-0.185c0.009-0.061 0.013-0.122 0.013-0.184v-0.009h0.01 h0.059l0.002 0.007c0.015 0.1 0.1 0.1 0.1 0.056c0.003 0 0 0 0 0h1.125c0.06-0.001 0.104-0.001 0.108-0.059 l0.001-0.01l0.01 0.001l0.062 0.01l-0.002 0.009c-0.009 0.059-0.017 0.118-0.023 0.176c-0.005 0.058-0.005 0.117-0.005 0.176v0.007 l-0.006 0.002l-0.077 0.028l0-0.013c-0.006-0.082-0.014-0.2-0.152-0.2h-0.348v1.15c0.002 0.2 0.1 0.2 0.2 0.178h0.05v0.01 v0.075H22.134z"/><path fill="#1D1D1B" d="M22.604 105.055h0.03c0.079 0 0.161-0.011 0.161-0.124v-1.142c0-0.113-0.082-0.125-0.161-0.125h-0.03v-0.065 c0.085 0 0.2 0 0.3 0.009c0.109 0 0.24-0.009 0.343-0.009v0.065h-0.03c-0.079 0-0.162 0.011-0.162 0.125v1.142 c0 0.1 0.1 0.1 0.2 0.124h0.03v0.065c-0.105 0-0.235-0.008-0.344-0.008c-0.107 0-0.236 0.008-0.321 0.008V105.055z"/><path fill="#1D1D1B" d="M23.26 105.111v-0.046h-0.021c-0.078 0-0.171-0.014-0.171-0.134v-1.142c0-0.12 0.093-0.134 0.171-0.134 h0.021v-0.046c-0.101 0-0.227 0.008-0.333 0.008c-0.104 0-0.228-0.008-0.313-0.008v0.046h0.021c0.078 0 0.2 0 0.2 0.1 v1.142c0 0.12-0.093 0.134-0.171 0.134h-0.021v0.046c0.084-0.001 0.208-0.008 0.312-0.008 C23.031 105.1 23.2 105.1 23.3 105.1 M23.27 105.13c-0.105 0-0.235-0.009-0.344-0.009c-0.107 0-0.236 0.009-0.321 0 h-0.01v-0.009v-0.065v-0.01h0.01h0.03c0.079-0.001 0.151-0.008 0.152-0.114v-1.142c0-0.106-0.073-0.113-0.152-0.115h-0.04v-0.01 v-0.075h0.01c0.085 0 0.2 0 0.3 0.008c0.108 0 0.24-0.008 0.343-0.008h0.009v0.009v0.075H23.27h-0.03 c-0.08 0.001-0.152 0.008-0.152 0.115v1.142c0 0.1 0.1 0.1 0.2 0.114h0.04v0.01v0.075H23.27z"/><path fill="#1D1D1B" d="M24.171 105.057c0.423 0 0.497-0.373 0.497-0.69c0-0.319-0.172-0.704-0.534-0.704 c-0.382 0-0.495 0.34-0.495 0.632C23.64 104.7 23.8 105.1 24.2 105.1 M24.138 103.566c0.465 0 0.8 0.3 0.8 0.8 c0 0.501-0.36 0.834-0.824 0.834c-0.462 0-0.815-0.313-0.815-0.782C23.334 103.9 23.7 103.6 24.1 103.6"/><path fill="#1D1D1B" d="M23.63 104.294c0-0.293 0.115-0.642 0.504-0.642c0.37 0 0.5 0.4 0.5 0.7 c0 0.317-0.076 0.7-0.506 0.7v-0.009v-0.009c0.415-0.001 0.486-0.364 0.487-0.682c0-0.316-0.17-0.694-0.524-0.695 c-0.374 0-0.484 0.333-0.485 0.623c0 0.4 0.2 0.8 0.5 0.754v0.009v0.009C23.81 105.1 23.6 104.7 23.6 104.3 M23.325 104.371c0-0.458 0.355-0.813 0.813-0.814v0.009v0.009c-0.448 0-0.794 0.347-0.794 0.795c0 0.5 0.3 0.8 0.8 0.8 c0.459 0 0.814-0.329 0.814-0.825c0-0.458-0.365-0.742-0.826-0.743v-0.009v-0.009c0.469 0 0.8 0.3 0.8 0.8 c0 0.507-0.364 0.843-0.833 0.844C23.684 105.2 23.3 104.8 23.3 104.4"/><path fill="#1D1D1B" d="M26.442 104.691l0.004-0.004v-0.817c0-0.179-0.125-0.205-0.19-0.205h-0.047v-0.065 c0.102 0 0.2 0 0.3 0.009c0.09 0 0.179-0.009 0.269-0.009v0.065H26.75c-0.091 0-0.194 0.018-0.194 0.277v0.992 c0 0.1 0 0.2 0 0.22h-0.083l-1.123-1.251v0.898c0 0.2 0 0.3 0.2 0.255h0.037v0.065 c-0.094 0-0.188-0.008-0.281-0.008c-0.099 0-0.199 0.008-0.297 0.008v-0.065h0.03c0.151 0 0.196-0.103 0.196-0.276v-0.918 c0-0.122-0.1-0.196-0.198-0.196h-0.028v-0.065c0.083 0 0.2 0 0.2 0.009c0.065 0 0.128-0.009 0.194-0.009L26.442 104.691z"/><path fill="#1D1D1B" d="M26.437 104.687L26.437 104.687l-0.001-0.003L26.437 104.687z M26.442 104.691l0.007-0.006L26.442 104.691z M26.486 105.144h0.071c-0.009-0.065-0.011-0.138-0.011-0.21v-0.992c0-0.262 0.109-0.286 0.203-0.286h0.023v-0.046 c-0.086 0-0.172 0.008-0.259 0.008c-0.1 0-0.197-0.008-0.295-0.008v0.046h0.038c0.068 0 0.2 0 0.2 0.215l-0.002 0.8 l-0.004 0.004l-0.007 0.007l-0.97-1.096c-0.064 0-0.128 0.008-0.194 0.008c-0.081 0-0.162-0.008-0.241-0.008v0.046h0.019 c0.102 0 0.2 0.1 0.2 0.205v0.918c0 0.174-0.049 0.286-0.206 0.286h-0.021v0.046c0.094 0 0.191-0.008 0.288-0.008 c0.09 0 0.2 0 0.3 0.008v-0.046h-0.028c-0.171 0-0.214-0.076-0.214-0.265v-0.923L26.486 105.144z M26.568 105.2 l-0.09-0.003l-1.106-1.232v0.874c0.002 0.2 0 0.2 0.2 0.245h0.047v0.01v0.075h-0.009c-0.095 0-0.188-0.009-0.281-0.009 c-0.099 0-0.198 0.009-0.297 0.009h-0.01v-0.009v-0.075h0.01h0.03c0.144-0.001 0.186-0.093 0.187-0.267v-0.918 c0-0.116-0.096-0.186-0.189-0.186h-0.038v-0.01v-0.075h0.01c0.083 0 0.2 0 0.2 0.008c0.064 0 0.127-0.008 0.201-0.005 l0.958 1.078v-0.801c0-0.174-0.117-0.194-0.181-0.196h-0.057v-0.01v-0.075h0.01c0.103 0 0.2 0 0.3 0 c0.089 0 0.178-0.008 0.269-0.008h0.009v0.009v0.075h-0.009H26.75c-0.09 0.002-0.183 0.01-0.184 0.267v0.992 c0 0.1 0 0.2 0 0.219l0.001 0.01H26.568z"/><path fill="#1D1D1B" d="M27.451 103.844h-0.004l-0.203 0.616h0.408L27.451 103.844z M27.132 104.8 c-0.021 0.074-0.047 0.131-0.047 0.17c0 0.1 0.1 0.1 0.2 0.077h0.024v0.065c-0.086-0.005-0.176-0.008-0.264-0.008 c-0.079 0-0.157 0.003-0.235 0.008v-0.065h0.013c0.085 0 0.157-0.05 0.189-0.142l0.35-1c0.028-0.081 0.067-0.19 0.08-0.27 c0.07-0.024 0.157-0.067 0.199-0.094c0.006-0.002 0.01-0.005 0.017-0.005c0.007 0 0 0 0 0 c0.006 0 0 0 0 0.055l0.401 1.14c0.026 0.1 0.1 0.2 0.1 0.222c0.026 0.1 0.1 0.1 0.1 0.087h0.013 v0.065c-0.098-0.005-0.196-0.008-0.301-0.008c-0.106 0-0.216 0.003-0.327 0.008v-0.065h0.024c0.05 0 0.135-0.009 0.135-0.063 c0-0.029-0.02-0.087-0.044-0.157l-0.085-0.252h-0.495L27.132 104.809z"/><path fill="#1D1D1B" d="M27.442 103.846l0.004-0.002L27.442 103.846z M27.257 104.45h0.381l-0.189-0.583L27.257 104.45z M27.23 104.469l0.209-0.635h0.006h0.005v0.01l-0.002 0l0.002 0v-0.01h0.007l0.206 0.635H27.23z M27.676 105.1 c0.108-0.004 0.214-0.008 0.318-0.008c0.102 0 0.2 0 0.3 0.008v-0.045h-0.003c-0.074 0-0.125-0.029-0.153-0.093 c-0.029-0.066-0.054-0.146-0.081-0.223l-0.401-1.14c-0.006-0.018-0.013-0.037-0.018-0.052c-0.002-0.002-0.002-0.002-0.003-0.002 h-0.004c-0.004 0-0.007 0.001-0.012 0.003c-0.042 0.027-0.129 0.071-0.194 0.087c-0.013 0.082-0.053 0.191-0.081 0.272l-0.349 1 c-0.033 0.095-0.109 0.148-0.198 0.148h-0.003v0.045c0.075-0.004 0.15-0.008 0.226-0.008c0.084 0 0.2 0 0.3 0.008v-0.045 h-0.015c-0.071 0-0.17-0.009-0.173-0.086c0-0.043 0.027-0.098 0.049-0.172l0.008 0.002l-0.008-0.002l0.071-0.233h0.508l0.087 0.3 c0.024 0.1 0 0.1 0 0.16c-0.003 0.067-0.095 0.071-0.145 0.073h-0.015V105.111z M28.294 105.1 c-0.099-0.004-0.196-0.009-0.3-0.009c-0.106 0-0.216 0.005-0.327 0.009l-0.01 0v-0.01v-0.075h0.009h0.024 c0.051 0 0.126-0.011 0.126-0.053c0-0.025-0.019-0.084-0.043-0.154l-0.083-0.247h-0.481l-0.067 0.2 c-0.022 0.075-0.048 0.132-0.047 0.167c0 0.1 0.1 0.1 0.2 0.067h0.033v0.01v0.075l-0.01 0 c-0.087-0.004-0.176-0.009-0.263-0.009c-0.078 0-0.156 0.005-0.235 0.009l-0.01 0v-0.01v-0.075h0.01h0.013 c0.081 0 0.149-0.047 0.181-0.135l0.349-1c0.028-0.081 0.067-0.189 0.086-0.276c0.068-0.023 0.156-0.067 0.198-0.093 c0.006-0.002 0.012-0.005 0.021-0.005c0.006 0 0 0 0 0.013c0.006 0 0 0 0 0.055l0.4 1.1 c0.026 0.1 0.1 0.2 0.1 0.222c0.026 0.1 0.1 0.1 0.1 0.081h0.022v0.01v0.075L28.294 105.13z"/><path fill="#1D1D1B" d="M28.844 104.907c0 0.1 0.1 0.1 0.1 0.123c0.089 0 0.2 0 0.288-0.004 c0.091-0.011 0.17-0.063 0.208-0.118c0.036-0.048 0.055-0.109 0.068-0.157h0.063c-0.024 0.125-0.055 0.247-0.081 0.4 c-0.192 0-0.384-0.008-0.576-0.008c-0.192 0-0.384 0.008-0.575 0.008v-0.065h0.03c0.079 0 0.165-0.011 0.165-0.146v-1.12 c0-0.113-0.085-0.125-0.165-0.125h-0.03v-0.065c0.115 0 0.2 0 0.3 0.009c0.111 0 0.22-0.009 0.332-0.009v0.065h-0.055 c-0.083 0-0.148 0.002-0.148 0.118V104.907z"/><path fill="#1D1D1B" d="M29.513 105.111c0.025-0.118 0.054-0.234 0.077-0.352h-0.044c-0.014 0.047-0.033 0.106-0.067 0.2 c-0.041 0.056-0.122 0.109-0.216 0.121c-0.058 0.006-0.114 0.009-0.167 0.009c-0.042 0-0.083-0.001-0.123-0.004 c-0.071-0.008-0.14-0.038-0.139-0.132v-1.124c0-0.122 0.077-0.127 0.158-0.127h0.045v-0.046c-0.107 0-0.213 0.008-0.322 0 c-0.113 0-0.223-0.008-0.335-0.008v0.046H28.4c0.078 0 0.2 0 0.2 0.134v1.12c0 0.142-0.095 0.156-0.173 0.156H28.38v0.046 c0.188 0 0.376-0.008 0.566-0.008S29.325 105.1 29.5 105.1 M29.521 105.13c-0.192 0-0.384-0.009-0.576-0.009 c-0.192 0-0.384 0.009-0.575 0.009h-0.01v-0.009v-0.075h0.01h0.03c0.079-0.001 0.154-0.007 0.155-0.137v-1.12 c-0.001-0.106-0.075-0.113-0.155-0.115h-0.04v-0.01v-0.075h0.01c0.115 0 0.2 0 0.3 0.008c0.11 0 0.219-0.008 0.332-0.008 h0.008v0.009v0.075h-0.008h-0.055c-0.085 0.001-0.137-0.002-0.139 0.108v1.124c0.001 0.1 0.1 0.1 0.1 0.1 c0.039 0 0.1 0 0.1 0.004c0.053 0 0.108-0.002 0.165-0.009c0.088-0.01 0.165-0.062 0.203-0.113 c0.034-0.046 0.053-0.107 0.066-0.154l0.002-0.007h0.007h0.074l-0.001 0.012c-0.024 0.125-0.055 0.247-0.081 0.371l-0.002 0 H29.521z"/><path fill="#1D1D1B" d="M29.538 103.768h0.027c0.03 0 0.043-0.022 0.043-0.059c0-0.037-0.021-0.05-0.045-0.05h-0.026V103.768z M29.461 103.889v-0.012c0.029-0.003 0.033-0.003 0.033-0.02v-0.17c0-0.024-0.002-0.032-0.032-0.03v-0.012h0.118 c0.041 0 0.1 0 0.1 0.061c0 0.034-0.022 0.06-0.054 0.069l0.038 0.053c0.018 0 0 0 0.1 0.054v0.007h-0.045 c-0.021 0-0.04-0.045-0.082-0.105h-0.026v0.076c0 0 0 0 0 0.018v0.012H29.461z M29.575 104 c0.103 0 0.182-0.087 0.182-0.186s-0.078-0.188-0.182-0.188c-0.103 0-0.182 0.089-0.182 0.188S29.472 104 29.6 104 M29.575 103.537c0.132 0 0.2 0.1 0.2 0.23c0 0.128-0.098 0.229-0.229 0.229c-0.131 0-0.229-0.1-0.229-0.229 C29.346 103.6 29.4 103.5 29.6 103.5"/><path fill="#004A97" d="M6.042 106.352c2.082 0 3.982-1.698 3.982-3.775c0-2.271-1.9-3.841-3.982-3.841H4.25 c-2.106 0-3.841 1.57-3.841 3.841c0 2.1 1.7 3.8 3.8 3.775H6.042z"/><path fill="#FFFFFF" d="M5.049 104.6v-4.125c0.829 0.3 1.4 1.1 1.4 2.062C6.467 103.5 5.9 104.3 5 104.6 M2.049 102.537c0.002-0.941 0.589-1.743 1.418-2.062v4.125C2.639 104.3 2.1 103.5 2 102.5 M4.259 99.1 c-1.925 0.001-3.485 1.562-3.486 3.486c0.001 1.9 1.6 3.5 3.5 3.486c1.925 0 3.486-1.561 3.486-3.486 C7.745 100.6 6.2 99.1 4.3 99.1"/><path fill="#1D1D1B" d="M11.637 102.253c0 0.3 0.2 0.3 0.4 0.344c0.865 0 1.149-0.653 1.149-1.25 c0-0.749-0.48-1.29-1.253-1.29c-0.165 0-0.24 0.012-0.313 0.016V102.253z M11.245 100.375c0-0.36-0.188-0.336-0.368-0.34v-0.104 c0.156 0 0.3 0 0.5 0.007c0.168 0 0.396-0.007 0.693-0.007c1.037 0 1.6 0.7 1.6 1.4 c0 0.397-0.232 1.394-1.65 1.394c-0.204 0-0.393-0.008-0.581-0.008c-0.18 0-0.357 0.004-0.537 0.008v-0.104 c0.24-0.024 0.356-0.032 0.368-0.305V100.375z"/><path fill="#1D1D1B" d="M14.213 100.279c-0.104 0-0.196-0.096-0.196-0.2c0-0.1 0.096-0.193 0.196-0.193 c0.104 0 0.2 0.1 0.2 0.193C14.41 100.2 14.3 100.3 14.2 100.3 M13.785 102.622h0.076c0.112 0 0.2 0 0.192-0.133 v-1.085c0-0.176-0.06-0.201-0.208-0.28v-0.064c0.188-0.056 0.413-0.131 0.428-0.144c0.028-0.016 0.052-0.021 0.072-0.021 c0.021 0 0 0 0 0.057v1.537c0 0.1 0.1 0.1 0.2 0.133h0.068v0.104c-0.137 0-0.276-0.008-0.421-0.008 c-0.144 0-0.288 0.004-0.436 0.008V102.622z"/><path fill="#1D1D1B" d="M15.022 101.428c0-0.148-0.044-0.188-0.232-0.264v-0.076c0.172-0.056 0.336-0.108 0.529-0.193 c0.012 0 0 0 0 0.04v0.261c0.229-0.164 0.425-0.301 0.693-0.301c0.34 0 0.5 0.2 0.5 0.561v1.033 c0 0.1 0.1 0.1 0.2 0.133h0.072v0.104c-0.141 0-0.281-0.008-0.425-0.008c-0.145 0-0.289 0.004-0.433 0.008v-0.104h0.072 c0.113 0 0.2 0 0.192-0.133v-1.037c0-0.229-0.14-0.34-0.368-0.34c-0.128 0-0.333 0.104-0.465 0.193v1.185 c0 0.1 0.1 0.1 0.2 0.133h0.072v0.104c-0.14 0-0.28-0.008-0.425-0.008c-0.144 0-0.289 0.004-0.432 0.008v-0.104h0.072 c0.112 0 0.2 0 0.192-0.133V101.428z"/><path fill="#1D1D1B" d="M17.782 101.493c0.1 0 0.112-0.052 0.112-0.101c0-0.204-0.125-0.368-0.349-0.368 c-0.244 0-0.412 0.18-0.459 0.469H17.782z M17.073 101.621c-0.008 0.036-0.008 0.1 0 0.232c0.023 0.4 0.3 0.7 0.6 0.7 c0.22 0 0.393-0.12 0.541-0.268l0.056 0.056c-0.184 0.245-0.413 0.453-0.741 0.453c-0.637 0-0.765-0.617-0.765-0.873 c0-0.786 0.528-1.018 0.809-1.018c0.325 0 0.7 0.2 0.7 0.629c0 0 0 0.048-0.003 0.072l-0.037 0.024H17.073z"/><path fill="#1D1D1B" d="M18.331 102.622h0.108c0.112 0 0.2 0 0.192-0.133v-1.125c0-0.125-0.148-0.149-0.208-0.181v-0.06 c0.292-0.124 0.453-0.229 0.489-0.229c0.023 0 0 0 0 0.052v0.361h0.008c0.1-0.156 0.269-0.413 0.513-0.413 c0.1 0 0.2 0.1 0.2 0.212c0 0.108-0.076 0.205-0.188 0.205c-0.125 0-0.125-0.097-0.265-0.097 c-0.068 0-0.292 0.093-0.292 0.333v0.94c0 0.1 0.1 0.1 0.2 0.133h0.224v0.104c-0.22-0.004-0.388-0.008-0.561-0.008 c-0.164 0-0.333 0.004-0.477 0.008V102.622z"/><path fill="#1D1D1B" d="M19.873 102.169c0.052 0.3 0.2 0.5 0.5 0.489c0.236 0 0.324-0.144 0.324-0.284 c0-0.473-0.873-0.321-0.873-0.966c0-0.224 0.181-0.513 0.621-0.513c0.127 0 0.3 0 0.5 0.116l0.028 0.409h-0.092 c-0.04-0.252-0.18-0.396-0.437-0.396c-0.161 0-0.313 0.092-0.313 0.264c0 0.5 0.9 0.3 0.9 1 c0 0.264-0.212 0.544-0.689 0.544c-0.16 0-0.348-0.056-0.488-0.136l-0.044-0.461L19.873 102.169z"/><path fill="#1D1D1B" d="M24.639 100.655h-0.1c-0.076-0.469-0.408-0.657-0.856-0.657c-0.461 0-1.13 0.309-1.13 1.3 c0 0.8 0.6 1.4 1.2 1.391c0.396 0 0.725-0.272 0.805-0.693l0.092 0.023l-0.092 0.585c-0.168 0.104-0.621 0.212-0.885 0.2 c-0.937 0-1.53-0.604-1.53-1.506c0-0.821 0.733-1.41 1.518-1.41c0.325 0 0.6 0.1 0.9 0.212L24.639 100.655z"/><path fill="#1D1D1B" d="M24.784 102.622h0.075c0.112 0 0.2 0 0.193-0.133v-2.23c0-0.26-0.06-0.269-0.212-0.313v-0.063 c0.16-0.052 0.328-0.125 0.412-0.173c0.044-0.024 0.076-0.044 0.088-0.044c0.024 0 0 0 0 0.056v2.767 c0 0.1 0.1 0.1 0.2 0.133h0.067v0.104c-0.136 0-0.276-0.008-0.42-0.008c-0.145 0-0.289 0.004-0.437 0.008V102.622z"/><path fill="#1D1D1B" d="M27.355 102.505c0 0.1 0 0.1 0.1 0.077c0.048 0 0.108-0.004 0.16-0.004v0.084 c-0.172 0.016-0.5 0.1-0.577 0.124l-0.02-0.012v-0.324c-0.24 0.196-0.424 0.336-0.709 0.336c-0.216 0-0.44-0.14-0.44-0.477v-1.025 c0-0.104-0.016-0.204-0.24-0.225v-0.076c0.144-0.004 0.464-0.028 0.517-0.028c0.044 0 0 0 0 0.116v1.033 c0 0.1 0 0.5 0.3 0.465c0.136 0 0.316-0.104 0.484-0.244v-1.078c0-0.08-0.192-0.124-0.336-0.164v-0.072 c0.36-0.024 0.585-0.056 0.625-0.056c0.032 0 0 0 0 0.072V102.505z"/><path fill="#1D1D1B" d="M28.152 102.273c0 0.2 0.1 0.4 0.4 0.409c0.429 0 0.609-0.421 0.609-0.778 c0-0.433-0.328-0.793-0.641-0.793c-0.149 0-0.272 0.096-0.381 0.188V102.273z M28.152 101.184c0.16-0.136 0.377-0.289 0.597-0.289 c0.464 0 0.7 0.4 0.7 0.841c0 0.524-0.385 1.049-0.958 1.049c-0.296 0-0.452-0.096-0.557-0.14l-0.12 0.092l-0.084-0.044 c0.035-0.236 0.056-0.468 0.056-0.712v-1.723c0-0.26-0.061-0.269-0.212-0.313v-0.063c0.161-0.052 0.328-0.125 0.413-0.173 c0.044-0.024 0.076-0.044 0.088-0.044c0.024 0 0 0 0 0.056V101.184z"/><path fill="#1D1D1B" d="M10.872 105.055h0.031c0.079 0 0.161-0.011 0.161-0.124v-1.142c0-0.113-0.083-0.125-0.161-0.125h-0.031 v-0.065c0.085 0 0.2 0 0.3 0.009c0.109 0 0.239-0.009 0.342-0.009v0.065h-0.031c-0.078 0-0.161 0.011-0.161 0.125v1.142 c0 0.1 0.1 0.1 0.2 0.124h0.031v0.065c-0.105 0-0.236-0.008-0.344-0.008c-0.107 0-0.236 0.008-0.321 0.008V105.055z"/><path fill="#1D1D1B" d="M11.527 105.111l0-0.046h-0.021c-0.078 0-0.171-0.014-0.171-0.134v-1.142c0-0.12 0.093-0.134 0.171-0.134 h0.021v-0.046c-0.101 0-0.227 0.008-0.332 0.008c-0.104 0-0.229-0.008-0.313-0.008v0.046h0.021c0.078 0 0.2 0 0.2 0.134v1.142 c0 0.12-0.093 0.134-0.17 0.134h-0.021v0.046c0.085-0.001 0.208-0.009 0.311-0.009C11.299 105.1 11.4 105.1 11.5 105.1 M11.537 105.13c-0.105 0-0.236-0.009-0.345-0.009c-0.106 0-0.234 0.009-0.32 0.009h-0.009v-0.009v-0.065v-0.01h0.009h0.031 c0.079-0.001 0.151-0.008 0.151-0.114v-1.142c0-0.106-0.073-0.113-0.151-0.115h-0.04v-0.01v-0.075h0.009 c0.086 0 0.2 0 0.3 0.009c0.108 0 0.239-0.009 0.342-0.009h0.01v0.01v0.075h-0.01h-0.03 c-0.079 0.001-0.152 0.008-0.152 0.115v1.142c0 0.1 0.1 0.1 0.2 0.114h0.04v0.01v0.075H11.537z"/><path fill="#1D1D1B" d="M13.034 104.691l0.005-0.004v-0.817c0-0.179-0.125-0.205-0.19-0.205h-0.048v-0.065 c0.103 0 0.2 0 0.3 0.009c0.09 0 0.179-0.009 0.269-0.009v0.065h-0.033c-0.092 0-0.194 0.018-0.194 0.277v0.992 c0 0.1 0 0.2 0 0.22h-0.083l-1.122-1.251v0.898c0 0.2 0 0.3 0.2 0.255h0.037v0.065 c-0.094 0-0.187-0.008-0.281-0.008c-0.098 0-0.198 0.008-0.296 0.008v-0.065h0.031c0.15 0 0.196-0.103 0.196-0.276v-0.918 c0-0.122-0.101-0.196-0.199-0.196H11.62v-0.065c0.083 0 0.2 0 0.2 0.009c0.065 0 0.129-0.009 0.194-0.009L13.034 104.691z"/><path fill="#1D1D1B" d="M13.029 104.687L13.029 104.687l-0.002-0.002L13.029 104.687z M13.034 104.691l0.007-0.006L13.034 104.691z M13.078 105.144h0.072c-0.01-0.065-0.012-0.138-0.012-0.21v-0.992c0-0.262 0.109-0.286 0.204-0.286h0.023v-0.046 c-0.085 0-0.172 0.008-0.259 0.008c-0.099 0-0.196-0.008-0.295-0.008l0 0.046h0.039c0.067 0 0.2 0 0.2 0.215l-0.002 0.8 l-0.004 0.004l-0.007 0.007l-0.97-1.096c-0.064 0-0.127 0.008-0.194 0.008c-0.08 0-0.162-0.008-0.241-0.008l0 0.046h0.019 c0.103 0 0.2 0.1 0.2 0.205v0.918c0 0.174-0.048 0.286-0.205 0.286l-0.021 0v0.047c0.094-0.001 0.191-0.009 0.287-0.009 c0.091 0 0.2 0 0.3 0.009v-0.046H12.16c-0.171 0-0.214-0.076-0.214-0.265v-0.923L13.078 105.144z M13.16 105.2 l-0.089-0.003l-1.106-1.232v0.874c0.003 0.2 0 0.2 0.2 0.245h0.046v0.01v0.075h-0.009c-0.094 0-0.188-0.009-0.281-0.009 c-0.097 0-0.198 0.009-0.296 0.009h-0.01v-0.009v-0.075h0.01h0.031c0.144-0.001 0.185-0.093 0.187-0.267v-0.918 c0-0.115-0.096-0.186-0.189-0.186H11.61v-0.01v-0.075h0.01c0.083 0 0.2 0 0.2 0.008c0.065 0 0.128-0.008 0.201-0.005 l0.958 1.078v-0.801c-0.001-0.174-0.117-0.194-0.18-0.196h-0.058v-0.01v-0.075h0.01c0.103 0 0.2 0 0.3 0 c0.089 0 0.178-0.008 0.269-0.008h0.009v0.009v0.075h-0.009h-0.033c-0.09 0.002-0.182 0.01-0.185 0.267v0.992 c0 0.1 0 0.2 0 0.218l0.002 0.011H13.16z"/><path fill="#1D1D1B" d="M13.701 103.708c-0.164 0-0.17 0.039-0.203 0.198h-0.065c0.009-0.061 0.02-0.122 0.026-0.186 c0.009-0.061 0.013-0.122 0.013-0.185h0.052c0.018 0.1 0.1 0.1 0.1 0.063h1.125c0.059 0 0.113-0.002 0.118-0.067 l0.052 0.009c-0.009 0.059-0.018 0.118-0.024 0.176c-0.003 0.059-0.003 0.118-0.003 0.177l-0.065 0 c-0.005-0.081-0.016-0.209-0.161-0.209h-0.358v1.159c0 0.2 0.1 0.2 0.2 0.188h0.042v0.065c-0.085 0-0.238-0.008-0.355-0.008 c-0.131 0-0.284 0.008-0.369 0.008v-0.065h0.042c0.12 0 0.181-0.011 0.181-0.183v-1.164H13.701z"/><path fill="#1D1D1B" d="M14.56 105.13c-0.085 0-0.238-0.009-0.355-0.009c-0.13 0-0.283 0.009-0.369 0.009h-0.009v-0.009v-0.075 h0.009h0.042c0.12-0.002 0.168-0.004 0.171-0.173v-1.155h-0.348v-0.009v-0.01h0.367v1.174c0 0.174-0.07 0.192-0.19 0.192h-0.032 v0.046c0.085 0 0.232-0.008 0.359-0.008c0.113 0 0.3 0 0.3 0.008v-0.046h-0.032c-0.105 0-0.19-0.026-0.19-0.197v-1.169 h0.368c0.146 0 0.2 0.1 0.2 0.206l0.047-0.018c0-0.056 0-0.114 0.004-0.171c0.006-0.056 0.014-0.111 0.022-0.167l-0.033-0.005 c-0.011 0.063-0.072 0.066-0.126 0.066h-1.124h-0.011c-0.051 0-0.107-0.002-0.127-0.063h-0.036c0 0.061-0.005 0.119-0.013 0.2 c-0.007 0.06-0.017 0.118-0.025 0.175h0.047c0.029-0.152 0.047-0.201 0.21-0.199v0.01v0.009c-0.162 0.003-0.158 0.03-0.193 0.2 l-0.002 0.008h-0.008h-0.076l0.001-0.012c0.009-0.061 0.021-0.122 0.026-0.185c0.009-0.061 0.013-0.121 0.013-0.184v-0.009h0.01 h0.06l0.002 0.007c0.015 0.1 0.1 0.1 0.1 0.056h0.011h1.124c0.061 0 0.105-0.001 0.109-0.059l0.001-0.01l0.01 0 l0.062 0.01l-0.001 0.009c-0.009 0.059-0.018 0.118-0.024 0.176c-0.004 0.058-0.004 0.117-0.004 0.176v0.007l-0.006 0 l-0.078 0.028v-0.013c-0.006-0.082-0.015-0.2-0.152-0.2h-0.349v1.15c0.002 0.2 0.1 0.2 0.2 0.178h0.051v0.01v0.075H14.56z"/><path fill="#1D1D1B" d="M15.02 105.055h0.03c0.078 0 0.161-0.011 0.161-0.124v-1.142c0-0.113-0.083-0.125-0.161-0.125h-0.03v-0.065 c0.132 0 0.4 0 0.5 0.009c0.184 0 0.41-0.009 0.558-0.009c-0.004 0.094-0.001 0.2 0 0.334l-0.065 0 c-0.01-0.142-0.037-0.255-0.266-0.255H15.49v0.571h0.259c0.131 0 0.16-0.074 0.172-0.192h0.065c-0.004 0.085-0.007 0.17-0.007 0.3 c0 0.1 0 0.2 0 0.249l-0.065 0.013c-0.013-0.131-0.019-0.216-0.17-0.216H15.49v0.508c0 0.1 0.1 0.1 0.3 0.1 c0.261 0 0.377-0.018 0.442-0.266l0.061 0.015c-0.029 0.116-0.055 0.231-0.074 0.347c-0.14 0-0.39-0.008-0.586-0.008 s-0.456 0.008-0.58 0.008V105.055z"/><path fill="#1D1D1B" d="M16.177 105.111c0.019-0.11 0.044-0.22 0.071-0.33l-0.043-0.011c-0.065 0.244-0.191 0.265-0.449 0.3 c-0.137 0-0.275 0-0.275-0.151v-0.517h0.271c0.152-0.001 0.2 0.1 0.2 0.214l0.047-0.01c-0.004-0.081-0.006-0.161-0.006-0.241 c0-0.082 0.002-0.164 0.006-0.246H15.93c-0.012 0.114-0.048 0.193-0.181 0.192H15.48v-0.59h0.313 c0.227-0.001 0.3 0.1 0.3 0.252l0.047-0.013c-0.004-0.061-0.007-0.14-0.007-0.213c0-0.038 0.001-0.073 0.002-0.104 c-0.148 0-0.369 0.008-0.548 0.008s-0.399-0.008-0.533-0.008v0.046h0.021c0.078 0 0.2 0 0.2 0.134v1.142 c0 0.12-0.093 0.133-0.171 0.134h-0.021v0.046c0.127 0 0.379-0.008 0.571-0.008C15.792 105.1 16 105.1 16.2 105.1 M16.185 105.13c-0.14 0-0.391-0.009-0.586-0.009c-0.196 0-0.455 0.009-0.58 0.009h-0.01v-0.009v-0.065v-0.01h0.01h0.03 c0.079-0.001 0.15-0.008 0.152-0.114v-1.142c-0.001-0.106-0.073-0.113-0.152-0.115h-0.04v-0.01v-0.075h0.01 c0.133 0 0.4 0 0.5 0.008c0.183 0 0.41-0.008 0.558-0.008h0.01l0 0.01c-0.001 0.033-0.002 0.072-0.002 0.1 c0 0.1 0 0.2 0 0.22v0.008l-0.007 0.002l-0.077 0.02l0-0.011c-0.013-0.141-0.032-0.244-0.256-0.246H15.5l0 0.552h0.25 c0.126-0.001 0.148-0.065 0.163-0.183l0.001-0.009h0.008h0.075l0 0.01c-0.004 0.085-0.007 0.17-0.007 0.3 c0 0.1 0 0.2 0 0.248l0 0.008l-0.008 0.001l-0.075 0.015l-0.001-0.01c-0.015-0.133-0.016-0.206-0.161-0.208H15.5v0.499 c0 0.1 0.1 0.1 0.3 0.132c0.262-0.001 0.368-0.014 0.433-0.259l0.002-0.009l0.009 0.002l0.07 0.018l-0.002 0 c-0.028 0.116-0.054 0.231-0.073 0.346l-0.002 0.008H16.185z"/><path fill="#1D1D1B" d="M16.833 104.335h0.106c0.218 0 0.335-0.083 0.335-0.339c0-0.194-0.125-0.318-0.318-0.318 c-0.065 0-0.093 0.006-0.124 0.008V104.335z M16.554 103.831c0-0.159-0.087-0.166-0.155-0.166h-0.039v-0.065 c0.07 0 0.2 0 0.3 0.009c0.13 0 0.235-0.009 0.351-0.009c0.274 0 0.5 0.1 0.5 0.384c0 0.196-0.131 0.316-0.303 0.4 l0.373 0.557c0.062 0.1 0.1 0.1 0.2 0.131v0.065c-0.072 0-0.142-0.008-0.214-0.008c-0.067 0-0.138 0.008-0.205 0 c-0.168-0.22-0.312-0.456-0.454-0.706h-0.144v0.467c0 0.2 0.1 0.2 0.2 0.174h0.04v0.065c-0.125 0-0.25-0.008-0.375-0.008 c-0.104 0-0.207 0.008-0.316 0.008v-0.065h0.039c0.081 0 0.155-0.037 0.155-0.118V103.831z"/><path fill="#1D1D1B" d="M16.939 104.326c0.216-0.002 0.325-0.077 0.327-0.33c-0.001-0.19-0.12-0.308-0.31-0.309 c-0.059 0-0.086 0.005-0.114 0.008v0.631H16.939z M16.833 104.345h-0.01v-0.667l0.008-0.001c0.03-0.002 0.059-0.008 0.125-0.008 c0.199 0 0.3 0.1 0.3 0.327c0 0.26-0.125 0.349-0.345 0.349H16.833z M16.833 104.405h0.148l0.003 0 c0.142 0.2 0.3 0.5 0.4 0.702c0.067 0 0.137-0.009 0.205-0.009c0.069 0 0.1 0 0.2 0.008v-0.047 c-0.103-0.013-0.15-0.043-0.209-0.134l-0.379-0.567l0.011-0.004c0.17-0.067 0.297-0.184 0.297-0.375 c0-0.302-0.235-0.372-0.509-0.374c-0.115 0-0.219 0.008-0.351 0.008c-0.128 0-0.257-0.008-0.329-0.008v0.046h0.03 c0.068 0 0.2 0 0.2 0.175v1.107c0 0.087-0.082 0.127-0.164 0.127h-0.03v0.046c0.105 0 0.204-0.008 0.307-0.008 c0.122 0 0.2 0 0.4 0.008v-0.046h-0.03c-0.1 0-0.188-0.013-0.188-0.184v-0.476H16.833z M17.848 105.1 c-0.073 0-0.143-0.009-0.214-0.009c-0.066 0-0.136 0.009-0.212 0.005c-0.167-0.219-0.311-0.453-0.451-0.702h-0.129v0.457 c0.002 0.2 0.1 0.2 0.2 0.165h0.049v0.01v0.075h-0.01c-0.125 0-0.251-0.009-0.375-0.009c-0.104 0-0.207 0.009-0.316 0 h-0.01v-0.009v-0.075h0.01h0.039c0.079 0 0.145-0.034 0.146-0.108v-1.107c-0.002-0.155-0.078-0.155-0.146-0.156H16.35v-0.01v-0.075 h0.01c0.07 0 0.2 0 0.3 0.009c0.13 0 0.235-0.009 0.351-0.009c0.274 0 0.5 0.1 0.5 0.4 c0 0.197-0.13 0.32-0.298 0.389l0.366 0.548c0.061 0.1 0.1 0.1 0.2 0.126l0.008 0.001v0.008v0.075H17.848z"/><path fill="#1D1D1B" d="M19.328 104.691l0.004-0.004v-0.817c0-0.179-0.124-0.205-0.189-0.205h-0.048v-0.065 c0.102 0 0.2 0 0.3 0.009c0.089 0 0.178-0.009 0.269-0.009v0.065h-0.033c-0.091 0-0.194 0.018-0.194 0.277v0.992 c0 0.1 0 0.2 0 0.22h-0.083l-1.122-1.251v0.898c0 0.2 0 0.3 0.2 0.255h0.037v0.065 c-0.094 0-0.188-0.008-0.281-0.008c-0.098 0-0.198 0.008-0.296 0.008v-0.065h0.031c0.15 0 0.196-0.103 0.196-0.276v-0.918 c0-0.122-0.1-0.196-0.198-0.196h-0.028v-0.065c0.083 0 0.2 0 0.3 0.009c0.064 0 0.128-0.009 0.193-0.009L19.328 104.691z"/><path fill="#1D1D1B" d="M19.322 104.687L19.322 104.687l-0.001-0.003L19.322 104.687z M19.328 104.691l0.006-0.006L19.328 104.691z M19.371 105.144h0.072c-0.01-0.065-0.012-0.138-0.012-0.21v-0.992c0-0.262 0.111-0.286 0.204-0.286h0.023v-0.046 c-0.085 0-0.172 0.008-0.258 0.008c-0.1 0-0.197-0.008-0.296-0.008v0.046h0.039c0.067 0 0.2 0 0.2 0.214l-0.003 0.8 l-0.004 0.004l-0.007 0.007l-0.97-1.096c-0.065 0-0.128 0.008-0.193 0.008c-0.081 0-0.163-0.008-0.242-0.008v0.046h0.02 c0.102 0 0.2 0.1 0.2 0.205v0.918c0 0.175-0.049 0.286-0.206 0.287h-0.021v0.046c0.094 0 0.191-0.008 0.287-0.008 c0.092 0 0.2 0 0.3 0.008v-0.046h-0.028c-0.172 0-0.214-0.076-0.215-0.265v-0.922L19.371 105.144z M19.454 105.2 l-0.09-0.003l-1.106-1.232v0.874c0.003 0.2 0 0.2 0.2 0.245H18.5v0.01v0.075H18.49c-0.094 0-0.188-0.009-0.281-0.009 c-0.097 0-0.198 0.009-0.296 0.009h-0.01v-0.009v-0.075h0.01h0.03c0.144 0 0.185-0.093 0.187-0.267v-0.918 c0-0.116-0.095-0.186-0.188-0.186h-0.038v-0.01v-0.075h0.01c0.083 0 0.2 0 0.3 0.009c0.064 0 0.127-0.009 0.2-0.006 l0.958 1.079v-0.802c0-0.173-0.116-0.195-0.18-0.195h-0.057v-0.01v-0.075h0.009c0.103 0 0.2 0 0.3 0 c0.089 0 0.178-0.009 0.268-0.009h0.01v0.01v0.075h-0.01h-0.033c-0.09 0.001-0.182 0.01-0.185 0.267v0.992 c0 0.1 0 0.2 0 0.219l0.001 0.01H19.454z"/><path fill="#1D1D1B" d="M20.336 103.844h-0.005l-0.203 0.616h0.408L20.336 103.844z M20.018 104.8 c-0.022 0.074-0.048 0.131-0.048 0.17c0 0.1 0.1 0.1 0.2 0.077h0.024v0.065c-0.087-0.005-0.176-0.008-0.264-0.008 c-0.079 0-0.157 0.003-0.235 0.008v-0.065h0.014c0.085 0 0.157-0.05 0.189-0.142l0.349-1c0.028-0.081 0.067-0.19 0.081-0.27 c0.07-0.024 0.157-0.067 0.198-0.094c0.007-0.002 0.011-0.005 0.018-0.005c0.006 0 0 0 0 0 c0.007 0 0 0 0 0.055l0.401 1.14c0.026 0.1 0.1 0.2 0.1 0.222c0.026 0.1 0.1 0.1 0.1 0.087h0.013 v0.065c-0.098-0.005-0.196-0.008-0.301-0.008c-0.107 0-0.216 0.003-0.327 0.008v-0.065h0.024c0.05 0 0.135-0.009 0.135-0.063 c0-0.029-0.02-0.087-0.044-0.157l-0.085-0.252h-0.494L20.018 104.809z"/><path fill="#1D1D1B" d="M20.327 103.846l0.005-0.002L20.327 103.846z M20.142 104.451h0.381l-0.189-0.584L20.142 104.451z M20.116 104.469l0.208-0.635h0.007h0.004v0.01l-0.002 0l0.002 0v-0.01h0.006l0.207 0.635H20.116z M20.562 105.1 c0.108-0.004 0.213-0.008 0.317-0.008c0.102 0 0.2 0 0.3 0.008v-0.045h-0.003c-0.074 0-0.126-0.029-0.152-0.093 c-0.029-0.066-0.056-0.146-0.081-0.223l-0.401-1.14c-0.007-0.018-0.013-0.037-0.019-0.053c-0.002-0.002-0.001-0.002-0.004-0.002 h-0.003c-0.005 0-0.007 0.001-0.013 0.003c-0.042 0.027-0.129 0.07-0.194 0.087c-0.013 0.082-0.052 0.191-0.081 0.272l-0.348 1 c-0.034 0.095-0.11 0.148-0.199 0.148h-0.003v0.045c0.075-0.004 0.15-0.008 0.226-0.008c0.084 0 0.2 0 0.3 0.008v-0.045 h-0.014c-0.071 0-0.17-0.009-0.172-0.086c0-0.043 0.026-0.099 0.048-0.173l0.009 0.002l-0.009-0.002l0.072-0.233h0.508l0.087 0.3 c0.024 0.1 0 0.1 0 0.16c-0.003 0.067-0.095 0.071-0.144 0.073h-0.015V105.11z M21.179 105.1 c-0.098-0.004-0.196-0.009-0.3-0.009c-0.107 0-0.215 0.004-0.327 0.009l-0.01 0v-0.01v-0.075h0.01h0.024 c0.05 0 0.125-0.011 0.125-0.053c0.001-0.025-0.019-0.085-0.043-0.154l-0.083-0.247h-0.48l-0.068 0.2 c-0.022 0.074-0.048 0.132-0.048 0.167c0.001 0.1 0.1 0.1 0.2 0.066h0.034v0.01v0.075l-0.01 0 c-0.087-0.004-0.177-0.009-0.263-0.009c-0.078 0-0.157 0.004-0.235 0.009l-0.01 0v-0.01v-0.075h0.009h0.013 c0.082 0 0.149-0.046 0.18-0.135l0.349-1c0.028-0.081 0.068-0.189 0.087-0.276c0.068-0.023 0.156-0.067 0.198-0.093 c0.006-0.002 0.012-0.005 0.021-0.005c0.005 0 0 0 0 0.013c0.006 0 0 0 0 0.055l0.401 1.1 c0.026 0.1 0.1 0.2 0.1 0.222c0.025 0.1 0.1 0.1 0.1 0.081h0.022v0.01v0.075L21.179 105.13z"/><path fill="#1D1D1B" d="M21.275 103.708c-0.163 0-0.17 0.039-0.203 0.198h-0.065c0.008-0.061 0.02-0.122 0.026-0.186 c0.009-0.061 0.013-0.122 0.013-0.185h0.052c0.017 0.1 0.1 0.1 0.1 0.063h1.125c0.058 0 0.113-0.002 0.117-0.067l0.052 0 c-0.008 0.059-0.017 0.118-0.023 0.176c-0.005 0.059-0.005 0.118-0.005 0.177l-0.065 0.024c-0.004-0.081-0.015-0.209-0.161-0.209 h-0.357v1.159c0 0.2 0.1 0.2 0.2 0.188h0.042v0.065c-0.085 0-0.237-0.008-0.355-0.008c-0.131 0-0.284 0.008-0.369 0 v-0.065h0.042c0.12 0 0.181-0.011 0.181-0.183v-1.164H21.275z"/><path fill="#1D1D1B" d="M22.134 105.13c-0.085 0-0.238-0.009-0.355-0.009c-0.131 0-0.283 0.009-0.369 0.009h-0.01v-0.009v-0.075 h0.01h0.042c0.12-0.002 0.168-0.004 0.171-0.173v-1.155h-0.348v-0.009v-0.01h0.367v1.174c0 0.174-0.071 0.192-0.19 0.192H21.42 v0.046c0.086-0.001 0.232-0.009 0.359-0.009c0.113 0 0.3 0 0.3 0.009l0-0.046h-0.032c-0.105 0-0.19-0.026-0.19-0.197v-1.169 h0.367c0.146 0 0.2 0.1 0.2 0.206l0.047-0.018c0-0.056 0-0.114 0.004-0.171c0.006-0.056 0.014-0.112 0.022-0.167l-0.033-0.005 c-0.01 0.063-0.071 0.067-0.125 0.066h-1.125h-0.011c-0.052 0-0.107-0.002-0.127-0.063h-0.036c0 0.06-0.005 0.119-0.013 0.2 c-0.006 0.061-0.017 0.118-0.025 0.175h0.047c0.029-0.152 0.048-0.201 0.21-0.199v0.01v0.009c-0.161 0.002-0.158 0.03-0.193 0.2 l-0.002 0.008h-0.007h-0.076l0.001-0.011c0.009-0.061 0.02-0.122 0.026-0.185c0.009-0.061 0.013-0.122 0.013-0.184v-0.009h0.01 h0.059l0.002 0.007c0.015 0.1 0.1 0.1 0.1 0.056c0.003 0 0 0 0 0h1.125c0.06-0.001 0.104-0.001 0.108-0.059 l0.001-0.01l0.01 0.001l0.062 0.01l-0.002 0.009c-0.009 0.059-0.017 0.118-0.023 0.176c-0.005 0.058-0.005 0.117-0.005 0.176v0.007 l-0.006 0.002l-0.077 0.028l0-0.013c-0.006-0.082-0.014-0.2-0.152-0.2h-0.348v1.15c0.002 0.2 0.1 0.2 0.2 0.178h0.05v0.01 v0.075H22.134z"/><path fill="#1D1D1B" d="M22.604 105.055h0.03c0.079 0 0.161-0.011 0.161-0.124v-1.142c0-0.113-0.082-0.125-0.161-0.125h-0.03v-0.065 c0.085 0 0.2 0 0.3 0.009c0.109 0 0.24-0.009 0.343-0.009v0.065h-0.03c-0.079 0-0.162 0.011-0.162 0.125v1.142 c0 0.1 0.1 0.1 0.2 0.124h0.03v0.065c-0.105 0-0.235-0.008-0.344-0.008c-0.107 0-0.236 0.008-0.321 0.008V105.055z"/><path fill="#1D1D1B" d="M23.26 105.111v-0.046h-0.021c-0.078 0-0.171-0.014-0.171-0.134v-1.142c0-0.12 0.093-0.134 0.171-0.134 h0.021v-0.046c-0.101 0-0.227 0.008-0.333 0.008c-0.104 0-0.228-0.008-0.313-0.008v0.046h0.021c0.078 0 0.2 0 0.2 0.1 v1.142c0 0.12-0.093 0.134-0.171 0.134h-0.021v0.046c0.084-0.001 0.208-0.008 0.312-0.008 C23.031 105.1 23.2 105.1 23.3 105.1 M23.27 105.13c-0.105 0-0.235-0.009-0.344-0.009c-0.107 0-0.236 0.009-0.321 0 h-0.01v-0.009v-0.065v-0.01h0.01h0.03c0.079-0.001 0.151-0.008 0.152-0.114v-1.142c0-0.106-0.073-0.113-0.152-0.115h-0.04v-0.01 v-0.075h0.01c0.085 0 0.2 0 0.3 0.008c0.108 0 0.24-0.008 0.343-0.008h0.009v0.009v0.075H23.27h-0.03 c-0.08 0.001-0.152 0.008-0.152 0.115v1.142c0 0.1 0.1 0.1 0.2 0.114h0.04v0.01v0.075H23.27z"/><path fill="#1D1D1B" d="M24.171 105.057c0.423 0 0.497-0.373 0.497-0.69c0-0.319-0.172-0.704-0.534-0.704 c-0.382 0-0.495 0.34-0.495 0.632C23.64 104.7 23.8 105.1 24.2 105.1 M24.138 103.566c0.465 0 0.8 0.3 0.8 0.8 c0 0.501-0.36 0.834-0.824 0.834c-0.462 0-0.815-0.313-0.815-0.782C23.334 103.9 23.7 103.6 24.1 103.6"/><path fill="#1D1D1B" d="M23.63 104.294c0-0.293 0.115-0.642 0.504-0.642c0.37 0 0.5 0.4 0.5 0.7 c0 0.317-0.076 0.7-0.506 0.7v-0.009v-0.009c0.415-0.001 0.486-0.364 0.487-0.682c0-0.316-0.17-0.694-0.524-0.695 c-0.374 0-0.484 0.333-0.485 0.623c0 0.4 0.2 0.8 0.5 0.754v0.009v0.009C23.81 105.1 23.6 104.7 23.6 104.3 M23.325 104.371c0-0.458 0.355-0.813 0.813-0.814v0.009v0.009c-0.448 0-0.794 0.347-0.794 0.795c0 0.5 0.3 0.8 0.8 0.8 c0.459 0 0.814-0.329 0.814-0.825c0-0.458-0.365-0.742-0.826-0.743v-0.009v-0.009c0.469 0 0.8 0.3 0.8 0.8 c0 0.507-0.364 0.843-0.833 0.844C23.684 105.2 23.3 104.8 23.3 104.4"/><path fill="#1D1D1B" d="M26.442 104.691l0.004-0.004v-0.817c0-0.179-0.125-0.205-0.19-0.205h-0.047v-0.065 c0.102 0 0.2 0 0.3 0.009c0.09 0 0.179-0.009 0.269-0.009v0.065H26.75c-0.091 0-0.194 0.018-0.194 0.277v0.992 c0 0.1 0 0.2 0 0.22h-0.083l-1.123-1.251v0.898c0 0.2 0 0.3 0.2 0.255h0.037v0.065 c-0.094 0-0.188-0.008-0.281-0.008c-0.099 0-0.199 0.008-0.297 0.008v-0.065h0.03c0.151 0 0.196-0.103 0.196-0.276v-0.918 c0-0.122-0.1-0.196-0.198-0.196h-0.028v-0.065c0.083 0 0.2 0 0.2 0.009c0.065 0 0.128-0.009 0.194-0.009L26.442 104.691z"/><path fill="#1D1D1B" d="M26.437 104.687L26.437 104.687l-0.001-0.003L26.437 104.687z M26.442 104.691l0.007-0.006L26.442 104.691z M26.486 105.144h0.071c-0.009-0.065-0.011-0.138-0.011-0.21v-0.992c0-0.262 0.109-0.286 0.203-0.286h0.023v-0.046 c-0.086 0-0.172 0.008-0.259 0.008c-0.1 0-0.197-0.008-0.295-0.008v0.046h0.038c0.068 0 0.2 0 0.2 0.215l-0.002 0.8 l-0.004 0.004l-0.007 0.007l-0.97-1.096c-0.064 0-0.128 0.008-0.194 0.008c-0.081 0-0.162-0.008-0.241-0.008v0.046h0.019 c0.102 0 0.2 0.1 0.2 0.205v0.918c0 0.174-0.049 0.286-0.206 0.286h-0.021v0.046c0.094 0 0.191-0.008 0.288-0.008 c0.09 0 0.2 0 0.3 0.008v-0.046h-0.028c-0.171 0-0.214-0.076-0.214-0.265v-0.923L26.486 105.144z M26.568 105.2 l-0.09-0.003l-1.106-1.232v0.874c0.002 0.2 0 0.2 0.2 0.245h0.047v0.01v0.075h-0.009c-0.095 0-0.188-0.009-0.281-0.009 c-0.099 0-0.198 0.009-0.297 0.009h-0.01v-0.009v-0.075h0.01h0.03c0.144-0.001 0.186-0.093 0.187-0.267v-0.918 c0-0.116-0.096-0.186-0.189-0.186h-0.038v-0.01v-0.075h0.01c0.083 0 0.2 0 0.2 0.008c0.064 0 0.127-0.008 0.201-0.005 l0.958 1.078v-0.801c0-0.174-0.117-0.194-0.181-0.196h-0.057v-0.01v-0.075h0.01c0.103 0 0.2 0 0.3 0 c0.089 0 0.178-0.008 0.269-0.008h0.009v0.009v0.075h-0.009H26.75c-0.09 0.002-0.183 0.01-0.184 0.267v0.992 c0 0.1 0 0.2 0 0.219l0.001 0.01H26.568z"/><path fill="#1D1D1B" d="M27.451 103.844h-0.004l-0.203 0.616h0.408L27.451 103.844z M27.132 104.8 c-0.021 0.074-0.047 0.131-0.047 0.17c0 0.1 0.1 0.1 0.2 0.077h0.024v0.065c-0.086-0.005-0.176-0.008-0.264-0.008 c-0.079 0-0.157 0.003-0.235 0.008v-0.065h0.013c0.085 0 0.157-0.05 0.189-0.142l0.35-1c0.028-0.081 0.067-0.19 0.08-0.27 c0.07-0.024 0.157-0.067 0.199-0.094c0.006-0.002 0.01-0.005 0.017-0.005c0.007 0 0 0 0 0 c0.006 0 0 0 0 0.055l0.401 1.14c0.026 0.1 0.1 0.2 0.1 0.222c0.026 0.1 0.1 0.1 0.1 0.087h0.013 v0.065c-0.098-0.005-0.196-0.008-0.301-0.008c-0.106 0-0.216 0.003-0.327 0.008v-0.065h0.024c0.05 0 0.135-0.009 0.135-0.063 c0-0.029-0.02-0.087-0.044-0.157l-0.085-0.252h-0.495L27.132 104.809z"/><path fill="#1D1D1B" d="M27.442 103.846l0.004-0.002L27.442 103.846z M27.257 104.45h0.381l-0.189-0.583L27.257 104.45z M27.23 104.469l0.209-0.635h0.006h0.005v0.01l-0.002 0l0.002 0v-0.01h0.007l0.206 0.635H27.23z M27.676 105.1 c0.108-0.004 0.214-0.008 0.318-0.008c0.102 0 0.2 0 0.3 0.008v-0.045h-0.003c-0.074 0-0.125-0.029-0.153-0.093 c-0.029-0.066-0.054-0.146-0.081-0.223l-0.401-1.14c-0.006-0.018-0.013-0.037-0.018-0.052c-0.002-0.002-0.002-0.002-0.003-0.002 h-0.004c-0.004 0-0.007 0.001-0.012 0.003c-0.042 0.027-0.129 0.071-0.194 0.087c-0.013 0.082-0.053 0.191-0.081 0.272l-0.349 1 c-0.033 0.095-0.109 0.148-0.198 0.148h-0.003v0.045c0.075-0.004 0.15-0.008 0.226-0.008c0.084 0 0.2 0 0.3 0.008v-0.045 h-0.015c-0.071 0-0.17-0.009-0.173-0.086c0-0.043 0.027-0.098 0.049-0.172l0.008 0.002l-0.008-0.002l0.071-0.233h0.508l0.087 0.3 c0.024 0.1 0 0.1 0 0.16c-0.003 0.067-0.095 0.071-0.145 0.073h-0.015V105.111z M28.294 105.1 c-0.099-0.004-0.196-0.009-0.3-0.009c-0.106 0-0.216 0.005-0.327 0.009l-0.01 0v-0.01v-0.075h0.009h0.024 c0.051 0 0.126-0.011 0.126-0.053c0-0.025-0.019-0.084-0.043-0.154l-0.083-0.247h-0.481l-0.067 0.2 c-0.022 0.075-0.048 0.132-0.047 0.167c0 0.1 0.1 0.1 0.2 0.067h0.033v0.01v0.075l-0.01 0 c-0.087-0.004-0.176-0.009-0.263-0.009c-0.078 0-0.156 0.005-0.235 0.009l-0.01 0v-0.01v-0.075h0.01h0.013 c0.081 0 0.149-0.047 0.181-0.135l0.349-1c0.028-0.081 0.067-0.189 0.086-0.276c0.068-0.023 0.156-0.067 0.198-0.093 c0.006-0.002 0.012-0.005 0.021-0.005c0.006 0 0 0 0 0.013c0.006 0 0 0 0 0.055l0.4 1.1 c0.026 0.1 0.1 0.2 0.1 0.222c0.026 0.1 0.1 0.1 0.1 0.081h0.022v0.01v0.075L28.294 105.13z"/><path fill="#1D1D1B" d="M28.844 104.907c0 0.1 0.1 0.1 0.1 0.123c0.089 0 0.2 0 0.288-0.004 c0.091-0.011 0.17-0.063 0.208-0.118c0.036-0.048 0.055-0.109 0.068-0.157h0.063c-0.024 0.125-0.055 0.247-0.081 0.4 c-0.192 0-0.384-0.008-0.576-0.008c-0.192 0-0.384 0.008-0.575 0.008v-0.065h0.03c0.079 0 0.165-0.011 0.165-0.146v-1.12 c0-0.113-0.085-0.125-0.165-0.125h-0.03v-0.065c0.115 0 0.2 0 0.3 0.009c0.111 0 0.22-0.009 0.332-0.009v0.065h-0.055 c-0.083 0-0.148 0.002-0.148 0.118V104.907z"/><path fill="#1D1D1B" d="M29.513 105.111c0.025-0.118 0.054-0.234 0.077-0.352h-0.044c-0.014 0.047-0.033 0.106-0.067 0.2 c-0.041 0.056-0.122 0.109-0.216 0.121c-0.058 0.006-0.114 0.009-0.167 0.009c-0.042 0-0.083-0.001-0.123-0.004 c-0.071-0.008-0.14-0.038-0.139-0.132v-1.124c0-0.122 0.077-0.127 0.158-0.127h0.045v-0.046c-0.107 0-0.213 0.008-0.322 0 c-0.113 0-0.223-0.008-0.335-0.008v0.046H28.4c0.078 0 0.2 0 0.2 0.134v1.12c0 0.142-0.095 0.156-0.173 0.156H28.38v0.046 c0.188 0 0.376-0.008 0.566-0.008S29.325 105.1 29.5 105.1 M29.521 105.13c-0.192 0-0.384-0.009-0.576-0.009 c-0.192 0-0.384 0.009-0.575 0.009h-0.01v-0.009v-0.075h0.01h0.03c0.079-0.001 0.154-0.007 0.155-0.137v-1.12 c-0.001-0.106-0.075-0.113-0.155-0.115h-0.04v-0.01v-0.075h0.01c0.115 0 0.2 0 0.3 0.008c0.11 0 0.219-0.008 0.332-0.008 h0.008v0.009v0.075h-0.008h-0.055c-0.085 0.001-0.137-0.002-0.139 0.108v1.124c0.001 0.1 0.1 0.1 0.1 0.1 c0.039 0 0.1 0 0.1 0.004c0.053 0 0.108-0.002 0.165-0.009c0.088-0.01 0.165-0.062 0.203-0.113 c0.034-0.046 0.053-0.107 0.066-0.154l0.002-0.007h0.007h0.074l-0.001 0.012c-0.024 0.125-0.055 0.247-0.081 0.371l-0.002 0 H29.521z"/><path fill="#1D1D1B" d="M29.538 103.768h0.027c0.03 0 0.043-0.022 0.043-0.059c0-0.037-0.021-0.05-0.045-0.05h-0.026V103.768z M29.461 103.889v-0.012c0.029-0.003 0.033-0.003 0.033-0.02v-0.17c0-0.024-0.002-0.032-0.032-0.03v-0.012h0.118 c0.041 0 0.1 0 0.1 0.061c0 0.034-0.022 0.06-0.054 0.069l0.038 0.053c0.018 0 0 0 0.1 0.054v0.007h-0.045 c-0.021 0-0.04-0.045-0.082-0.105h-0.026v0.076c0 0 0 0 0 0.018v0.012H29.461z M29.575 104 c0.103 0 0.182-0.087 0.182-0.186s-0.078-0.188-0.182-0.188c-0.103 0-0.182 0.089-0.182 0.188S29.472 104 29.6 104 M29.575 103.537c0.132 0 0.2 0.1 0.2 0.23c0 0.128-0.098 0.229-0.229 0.229c-0.131 0-0.229-0.1-0.229-0.229 C29.346 103.6 29.4 103.5 29.6 103.5"/></svg>